<svg xmlns="http://www.w3.org/2000/svg" xmlns:xlink="http://www.w3.org/1999/xlink" width="1080" zoomAndPan="magnify" viewBox="0 0 810 809.999993" height="1080" preserveAspectRatio="xMidYMid meet" version="1.0"><defs><clipPath id="832b1b7d3a"><path d="M 87 95.714844 L 723 95.714844 L 723 714.464844 L 87 714.464844 Z M 87 95.714844 " clip-rule="nonzero"/></clipPath></defs><g clip-path="url(#832b1b7d3a)"><path fill="#6b6b6b" d="M 719.734375 324.324219 C 711.414062 298.707031 687.738281 281.5 660.828125 281.5 C 658.382812 281.5 655.941406 281.644531 653.515625 281.9375 C 613.414062 213.308594 545.714844 162.703125 465.746094 145.441406 C 460.074219 117.085938 434.996094 95.65625 405 95.65625 C 375.003906 95.65625 349.925781 117.085938 344.253906 145.441406 C 264.285156 162.703125 196.582031 213.308594 156.484375 281.9375 C 154.058594 281.648438 151.621094 281.5 149.171875 281.5 C 122.261719 281.5 98.585938 298.710938 90.261719 324.324219 C 80.992188 352.855469 93.628906 383.328125 118.839844 397.480469 C 117.875 407.054688 117.375 416.765625 117.375 426.589844 C 117.375 500.109375 145.117188 567.265625 190.664062 618.167969 C 185.515625 629.230469 183.757812 641.570312 185.707031 653.890625 C 188.292969 670.234375 197.09375 684.59375 210.480469 694.320312 C 221.140625 702.0625 233.714844 706.15625 246.851562 706.15625 C 262.53125 706.15625 277.542969 700.144531 288.886719 689.707031 C 324.417969 705.445312 363.703125 714.210938 405 714.210938 C 446.296875 714.210938 485.582031 705.445312 521.113281 689.703125 C 532.460938 700.144531 547.472656 706.152344 563.148438 706.152344 C 576.285156 706.152344 588.859375 702.0625 599.519531 694.320312 C 623.835938 676.648438 631.507812 644.480469 619.324219 618.179688 C 664.875 567.273438 692.621094 500.117188 692.621094 426.589844 C 692.621094 416.765625 692.125 407.054688 691.15625 397.480469 C 716.375 383.324219 729.007812 352.851562 719.734375 324.324219 Z M 682.691406 426.589844 C 682.691406 496.390625 656.800781 560.25 614.125 609.089844 C 613.824219 608.652344 613.539062 608.214844 613.226562 607.785156 C 610.054688 603.421875 606.339844 599.558594 602.234375 596.21875 C 641.5 550.628906 665.269531 491.335938 665.269531 426.589844 C 665.269531 419.429688 664.964844 412.335938 664.394531 405.320312 C 669.667969 405.011719 674.886719 404.039062 679.960938 402.390625 C 680.507812 402.210938 681.039062 402.011719 681.574219 401.820312 C 682.300781 409.980469 682.691406 418.238281 682.691406 426.589844 Z M 593.683594 686.285156 C 584.730469 692.789062 574.175781 696.226562 563.152344 696.226562 C 546.527344 696.226562 530.773438 688.207031 521.015625 674.773438 C 504.15625 651.570312 509.320312 618.972656 532.527344 602.113281 C 541.476562 595.609375 552.03125 592.171875 563.054688 592.171875 C 579.683594 592.171875 595.433594 600.191406 605.191406 613.621094 C 622.050781 636.828125 616.886719 669.421875 593.683594 686.285156 Z M 246.851562 696.226562 C 235.828125 696.226562 225.269531 692.789062 216.320312 686.285156 C 205.078125 678.117188 197.6875 666.0625 195.515625 652.335938 C 193.34375 638.613281 196.644531 624.863281 204.8125 613.621094 C 214.566406 600.191406 230.320312 592.171875 246.945312 592.171875 C 257.96875 592.171875 268.523438 595.609375 277.472656 602.113281 C 300.679688 618.972656 305.84375 651.570312 288.984375 674.777344 C 279.226562 688.207031 263.476562 696.226562 246.851562 696.226562 Z M 128.425781 401.820312 C 128.960938 402.011719 129.492188 402.210938 130.039062 402.390625 C 135.113281 404.039062 140.332031 405.011719 145.601562 405.320312 C 145.03125 412.335938 144.730469 419.425781 144.730469 426.589844 C 144.730469 491.335938 168.5 550.628906 207.765625 596.21875 C 203.660156 599.558594 199.945312 603.421875 196.777344 607.78125 C 196.464844 608.210938 196.175781 608.652344 195.875 609.085938 C 153.199219 560.246094 127.304688 496.386719 127.304688 426.585938 C 127.308594 418.242188 127.699219 409.984375 128.425781 401.820312 Z M 99.707031 327.394531 C 106.695312 305.882812 126.578125 291.433594 149.175781 291.433594 C 154.617188 291.433594 160.027344 292.292969 165.261719 293.992188 C 178.476562 298.285156 189.230469 307.472656 195.539062 319.851562 C 201.847656 332.234375 202.957031 346.332031 198.660156 359.546875 C 191.671875 381.054688 171.792969 395.507812 149.195312 395.507812 C 143.753906 395.507812 138.339844 394.644531 133.109375 392.945312 C 105.828125 384.082031 90.84375 354.675781 99.707031 327.394531 Z M 405 105.585938 C 433.683594 105.585938 457.019531 128.921875 457.019531 157.609375 C 457.019531 186.292969 433.683594 209.628906 405 209.628906 C 376.316406 209.628906 352.976562 186.292969 352.976562 157.609375 C 352.976562 128.921875 376.316406 105.585938 405 105.585938 Z M 601.894531 362.613281 C 609.550781 386.171875 630.199219 402.613281 654.40625 405.097656 C 655.011719 412.183594 655.339844 419.351562 655.339844 426.589844 C 655.339844 489.246094 632.199219 546.597656 594.019531 590.550781 C 584.710938 585.195312 574.046875 582.242188 563.058594 582.242188 C 549.921875 582.242188 537.347656 586.335938 526.6875 594.078125 C 506.289062 608.898438 497.613281 633.929688 502.539062 657.140625 C 472.546875 669.878906 439.582031 676.929688 405 676.929688 C 370.421875 676.929688 337.453125 669.878906 307.464844 657.144531 C 312.390625 633.933594 303.714844 608.902344 283.316406 594.078125 C 272.65625 586.335938 260.082031 582.242188 246.945312 582.242188 C 235.957031 582.242188 225.289062 585.199219 215.984375 590.554688 C 177.804688 546.597656 154.664062 489.246094 154.664062 426.589844 C 154.664062 419.351562 154.992188 412.1875 155.59375 405.097656 C 179.800781 402.617188 200.449219 386.175781 208.105469 362.617188 C 213.222656 346.878906 211.902344 330.089844 204.386719 315.34375 C 200.882812 308.464844 196.210938 302.429688 190.640625 297.410156 C 225.121094 240.410156 281.683594 198.191406 348.382812 182.710938 C 358.035156 204.394531 379.773438 219.5625 405.003906 219.5625 C 430.230469 219.5625 451.96875 204.398438 461.621094 182.710938 C 528.332031 198.195312 584.902344 240.425781 619.378906 297.441406 C 601.785156 313.328125 594.113281 338.652344 601.894531 362.613281 Z M 641.671875 284.546875 C 636.488281 286.230469 631.683594 288.542969 627.304688 291.359375 C 591.589844 232.871094 533.453125 189.507812 464.933594 173.296875 C 466.246094 168.28125 466.953125 163.027344 466.953125 157.605469 C 466.953125 157.019531 466.925781 156.441406 466.90625 155.859375 C 541.585938 172.925781 604.886719 220.191406 643.242188 284.070312 C 642.71875 284.222656 642.195312 284.378906 641.671875 284.546875 Z M 345.0625 173.296875 C 276.546875 189.507812 218.414062 232.863281 182.703125 291.351562 C 178.277344 288.515625 173.460938 286.21875 168.328125 284.550781 C 167.808594 284.382812 167.28125 284.226562 166.757812 284.074219 C 205.113281 220.195312 268.414062 172.929688 343.089844 155.859375 C 343.074219 156.445312 343.046875 157.023438 343.046875 157.609375 C 343.046875 163.027344 343.75 168.28125 345.0625 173.296875 Z M 297.019531 680.617188 C 300.210938 676.222656 302.734375 671.546875 304.617188 666.710938 C 335.523438 679.679688 369.4375 686.859375 405 686.859375 C 440.5625 686.859375 474.476562 679.679688 505.386719 666.710938 C 507.269531 671.546875 509.792969 676.222656 512.980469 680.613281 C 513.320312 681.074219 513.683594 681.515625 514.03125 681.96875 C 480.539062 696.320312 443.683594 704.285156 405 704.285156 C 366.316406 704.285156 329.460938 696.324219 295.972656 681.96875 C 296.320312 681.519531 296.683594 681.078125 297.019531 680.617188 Z M 676.890625 392.941406 C 671.660156 394.644531 666.246094 395.503906 660.804688 395.503906 C 638.207031 395.503906 618.328125 381.054688 611.339844 359.542969 C 602.476562 332.261719 617.460938 302.855469 644.742188 293.988281 C 649.972656 292.289062 655.382812 291.429688 660.828125 291.429688 C 683.421875 291.429688 703.300781 305.882812 710.289062 327.390625 C 719.15625 354.671875 704.171875 384.078125 676.890625 392.941406 Z M 676.890625 392.941406 " fill-opacity="1" fill-rule="nonzero"/></g><path fill="#6b6b6b" d="M 660.816406 338.503906 C 654.28125 338.503906 648.765625 334.707031 648.765625 330.210938 C 648.765625 325.71875 654.28125 321.925781 660.816406 321.925781 C 667.347656 321.925781 672.867188 325.71875 672.867188 330.210938 C 672.867188 332.953125 675.089844 335.179688 677.832031 335.179688 C 680.574219 335.179688 682.796875 332.953125 682.796875 330.210938 C 682.796875 321.585938 675.515625 314.355469 665.78125 312.480469 L 665.78125 305.972656 C 665.78125 303.230469 663.558594 301.007812 660.816406 301.007812 C 658.074219 301.007812 655.851562 303.230469 655.851562 305.972656 L 655.851562 312.480469 C 646.117188 314.351562 638.832031 321.585938 638.832031 330.210938 C 638.832031 340.257812 648.695312 348.433594 660.816406 348.433594 C 667.347656 348.433594 672.867188 352.226562 672.867188 356.71875 C 672.867188 361.214844 667.347656 365.011719 660.816406 365.011719 C 654.28125 365.011719 648.765625 361.214844 648.765625 356.71875 C 648.765625 353.976562 646.542969 351.753906 643.800781 351.753906 C 641.058594 351.753906 638.832031 353.976562 638.832031 356.71875 C 638.832031 365.351562 646.117188 372.582031 655.851562 374.453125 L 655.851562 380.960938 C 655.851562 383.703125 658.074219 385.925781 660.816406 385.925781 C 663.558594 385.925781 665.78125 383.703125 665.78125 380.960938 L 665.78125 374.453125 C 675.515625 372.578125 682.796875 365.347656 682.796875 356.71875 C 682.796875 346.675781 672.9375 338.503906 660.816406 338.503906 Z M 660.816406 338.503906 " fill-opacity="1" fill-rule="nonzero"/><path fill="#6b6b6b" d="M 145.671875 377.515625 C 146.605469 378.445312 147.867188 378.96875 149.183594 378.96875 C 150.5 378.96875 151.761719 378.449219 152.695312 377.515625 L 181.6875 348.523438 C 186.1875 344.019531 188.691406 338.035156 188.738281 331.671875 C 188.785156 325.277344 186.347656 319.296875 181.882812 314.828125 C 177.457031 310.40625 171.542969 307.96875 165.214844 307.96875 C 159.242188 307.96875 153.601562 310.128906 149.183594 314.082031 C 144.765625 310.128906 139.125 307.96875 133.152344 307.96875 C 126.828125 307.96875 120.90625 310.40625 116.488281 314.828125 C 112.015625 319.296875 109.582031 325.277344 109.628906 331.671875 C 109.675781 338.035156 112.179688 344.023438 116.683594 348.523438 Z M 133.152344 317.898438 C 136.929688 317.898438 140.484375 319.371094 143.160156 322.046875 L 145.671875 324.558594 C 147.613281 326.496094 150.753906 326.496094 152.695312 324.558594 L 155.207031 322.042969 C 157.878906 319.371094 161.4375 317.898438 165.214844 317.898438 C 168.886719 317.898438 172.3125 319.300781 174.859375 321.847656 C 177.433594 324.421875 178.835938 327.882812 178.8125 331.597656 C 178.785156 335.335938 177.3125 338.855469 174.664062 341.5 L 149.183594 366.984375 L 123.703125 341.5 C 121.058594 338.855469 119.585938 335.339844 119.558594 331.597656 C 119.53125 327.886719 120.933594 324.421875 123.511719 321.847656 C 126.054688 319.300781 129.480469 317.898438 133.152344 317.898438 Z M 133.152344 317.898438 " fill-opacity="1" fill-rule="nonzero"/><path fill="#6b6b6b" d="M 535.289062 397.558594 C 554.511719 397.558594 569.421875 368.410156 569.421875 343.335938 C 569.421875 321.179688 556.664062 307.949219 535.289062 307.949219 C 513.914062 307.949219 501.15625 321.179688 501.15625 343.335938 C 501.15625 368.410156 516.066406 397.558594 535.289062 397.558594 Z M 535.289062 317.878906 C 546.328125 317.878906 559.492188 322.296875 559.492188 343.335938 C 559.492188 364.449219 546.824219 387.628906 535.289062 387.628906 C 523.753906 387.628906 511.085938 364.449219 511.085938 343.335938 C 511.085938 322.296875 524.246094 317.878906 535.289062 317.878906 Z M 535.289062 317.878906 " fill-opacity="1" fill-rule="nonzero"/><path fill="#6b6b6b" d="M 556.351562 394.769531 L 556.191406 394.769531 C 554.535156 394.769531 552.988281 395.59375 552.066406 396.96875 L 535.289062 421.992188 L 518.511719 396.96875 C 517.589844 395.59375 516.042969 394.765625 514.386719 394.765625 L 514.226562 394.765625 C 497.015625 394.765625 479.605469 406.902344 472.71875 422.808594 C 462.089844 415.898438 449.777344 411.753906 437.53125 411.753906 L 437.28125 411.753906 C 435.625 411.753906 434.078125 412.578125 433.160156 413.953125 L 405 455.953125 L 376.84375 413.953125 C 375.921875 412.578125 374.375 411.753906 372.71875 411.753906 L 372.46875 411.753906 C 360.226562 411.753906 347.910156 415.898438 337.277344 422.808594 C 330.394531 406.902344 312.984375 394.769531 295.773438 394.769531 L 295.609375 394.769531 C 293.953125 394.769531 292.40625 395.59375 291.488281 396.96875 L 274.710938 421.992188 L 257.933594 396.96875 C 257.011719 395.59375 255.464844 394.769531 253.808594 394.769531 L 253.648438 394.769531 C 234.394531 394.769531 214.882812 409.949219 210.148438 428.605469 L 193.476562 494.300781 C 192.976562 496.261719 193.71875 498.328125 195.351562 499.527344 C 218.496094 516.511719 245.9375 525.488281 274.710938 525.488281 C 280.5625 525.488281 286.351562 525.101562 292.066406 524.367188 L 282.144531 563.457031 C 281.648438 565.417969 282.386719 567.484375 284.019531 568.679688 C 319.300781 594.574219 361.132812 608.261719 405 608.261719 C 448.867188 608.261719 490.699219 594.574219 525.980469 568.679688 C 527.609375 567.484375 528.351562 565.417969 527.851562 563.457031 L 517.933594 524.367188 C 523.648438 525.101562 529.4375 525.488281 535.285156 525.488281 C 564.058594 525.488281 591.5 516.511719 614.648438 499.527344 C 616.277344 498.328125 617.019531 496.261719 616.523438 494.300781 L 599.851562 428.605469 C 595.117188 409.945312 575.601562 394.769531 556.351562 394.769531 Z M 535.289062 515.558594 C 528.527344 515.558594 521.847656 515.007812 515.292969 513.953125 L 502.101562 461.984375 C 498.902344 449.375 491.152344 437.851562 480.96875 429.019531 C 485.21875 416.410156 498.539062 405.957031 511.8125 404.804688 L 531.164062 433.671875 C 532.085938 435.046875 533.632812 435.871094 535.289062 435.871094 C 536.945312 435.871094 538.492188 435.046875 539.414062 433.671875 L 558.769531 404.804688 C 572.746094 406.019531 586.800781 417.542969 590.226562 431.050781 L 606.066406 493.453125 C 585.214844 507.925781 560.816406 515.558594 535.289062 515.558594 Z M 477.414062 584.441406 L 463.777344 496.335938 C 463.359375 493.625 460.816406 491.761719 458.113281 492.1875 C 455.402344 492.609375 453.542969 495.144531 453.964844 497.855469 L 467.910156 587.96875 C 447.867188 594.808594 426.695312 598.328125 405 598.328125 C 383.304688 598.328125 362.136719 594.808594 342.089844 587.96875 L 356.042969 497.855469 C 356.460938 495.144531 354.605469 492.605469 351.894531 492.1875 C 349.171875 491.765625 346.644531 493.625 346.226562 496.335938 L 332.585938 584.441406 C 318.566406 578.816406 305.164062 571.523438 292.601562 562.625 L 317.519531 464.425781 C 323.207031 442.015625 346.933594 422.972656 370.109375 421.746094 L 400.875 467.636719 C 401.796875 469.011719 403.34375 469.835938 405 469.835938 C 406.65625 469.835938 408.203125 469.011719 409.121094 467.636719 L 439.890625 421.746094 C 463.066406 422.972656 486.789062 442.015625 492.476562 464.425781 L 517.394531 562.625 C 504.839844 571.523438 491.4375 578.816406 477.414062 584.441406 Z M 251.234375 404.804688 L 270.589844 433.671875 C 271.507812 435.046875 273.054688 435.871094 274.710938 435.871094 C 276.367188 435.871094 277.914062 435.046875 278.835938 433.671875 L 298.191406 404.804688 C 311.460938 405.957031 324.78125 416.410156 329.03125 429.019531 C 318.847656 437.847656 311.097656 449.375 307.898438 461.984375 L 294.710938 513.953125 C 288.152344 515.007812 281.476562 515.558594 274.714844 515.558594 C 249.183594 515.558594 224.785156 507.925781 203.9375 493.453125 L 219.777344 431.046875 C 223.203125 417.542969 237.253906 406.019531 251.234375 404.804688 Z M 251.234375 404.804688 " fill-opacity="1" fill-rule="nonzero"/><path fill="#6b6b6b" d="M 274.710938 397.558594 C 293.933594 397.558594 308.84375 368.410156 308.84375 343.335938 C 308.84375 321.179688 296.085938 307.949219 274.710938 307.949219 C 253.335938 307.949219 240.578125 321.179688 240.578125 343.335938 C 240.578125 368.410156 255.488281 397.558594 274.710938 397.558594 Z M 274.710938 317.878906 C 285.753906 317.878906 298.914062 322.296875 298.914062 343.335938 C 298.914062 364.449219 286.246094 387.628906 274.710938 387.628906 C 263.175781 387.628906 250.507812 364.449219 250.507812 343.335938 C 250.507812 322.296875 263.671875 317.878906 274.710938 317.878906 Z M 274.710938 317.878906 " fill-opacity="1" fill-rule="nonzero"/><path fill="#6b6b6b" d="M 355.113281 354.003906 C 355.035156 355.582031 354.984375 357.152344 354.984375 358.699219 C 354.984375 391.71875 373.214844 410.65625 405 410.65625 C 436.789062 410.65625 455.019531 391.71875 455.019531 358.699219 C 455.019531 357.179688 454.964844 355.640625 454.890625 354.09375 C 465.390625 350.351562 471 333.855469 470.996094 318.222656 C 470.988281 295.226562 459.460938 268.371094 426.980469 268.371094 C 424.605469 268.371094 422.125 268.523438 419.601562 268.824219 C 415.203125 269.347656 410.6875 269.613281 406.179688 269.613281 C 386.75 269.613281 376.351562 265 375.082031 262.972656 C 374.878906 261.246094 373.785156 259.742188 372.191406 259.023438 C 370.53125 258.273438 368.59375 258.496094 367.144531 259.597656 C 358.839844 265.914062 354.644531 276.929688 355.6875 288.207031 C 342.933594 297.085938 340.09375 320.777344 343.238281 336 C 345.214844 345.550781 349.433594 351.839844 355.113281 354.003906 Z M 358.449219 299.207031 C 361.742188 307.117188 367.488281 313.453125 375.121094 317.878906 C 369.273438 322.726562 367.226562 330.078125 365.707031 335.570312 C 363.523438 343.4375 362.570312 344.921875 359.714844 344.921875 C 356.988281 344.921875 354.335938 340.632812 352.964844 333.992188 C 350.570312 322.417969 352.65625 306.785156 358.449219 299.207031 Z M 369.476562 271.304688 C 376.859375 277.261719 392.460938 279.542969 406.179688 279.542969 C 411.078125 279.542969 415.988281 279.253906 420.777344 278.6875 C 422.910156 278.429688 424.996094 278.300781 426.980469 278.300781 C 459.410156 278.300781 461.0625 311.554688 461.0625 318.222656 C 461.066406 332.628906 455.773438 343.949219 450.960938 344.886719 C 450.652344 344.101562 450.292969 342.898438 450.007812 341.945312 C 447.21875 332.597656 442.023438 315.195312 405 315.195312 C 377.191406 315.195312 369.078125 300.03125 366.878906 293.511719 C 364.195312 285.550781 365.3125 277.109375 369.476562 271.304688 Z M 405 400.726562 C 386.714844 400.726562 364.914062 393.433594 364.914062 358.699219 C 364.914062 357.125 364.972656 355.523438 365.066406 353.910156 C 371.640625 351.324219 373.695312 343.921875 375.273438 338.222656 C 377.660156 329.617188 379.589844 324.210938 387.714844 322.992188 C 393.003906 324.378906 398.789062 325.125 405 325.125 C 434.625 325.125 438.015625 336.488281 440.492188 344.785156 C 441.328125 347.582031 442.378906 351.089844 444.894531 353.144531 C 445.019531 355.015625 445.089844 356.871094 445.089844 358.699219 C 445.089844 393.433594 423.289062 400.726562 405 400.726562 Z M 405 400.726562 " fill-opacity="1" fill-rule="nonzero"/><path fill="#6b6b6b" d="M 587.890625 631.359375 L 575.941406 631.359375 L 575.941406 619.410156 C 575.941406 612.332031 570.183594 606.570312 563.105469 606.570312 C 556.027344 606.570312 550.265625 612.332031 550.265625 619.410156 L 550.265625 631.359375 L 538.316406 631.359375 C 531.238281 631.359375 525.476562 637.121094 525.476562 644.199219 C 525.476562 651.277344 531.238281 657.035156 538.316406 657.035156 L 550.265625 657.035156 L 550.265625 668.984375 C 550.265625 676.0625 556.027344 681.824219 563.105469 681.824219 C 570.183594 681.824219 575.941406 676.0625 575.941406 668.984375 L 575.941406 657.035156 L 587.890625 657.035156 C 594.96875 657.035156 600.730469 651.277344 600.730469 644.199219 C 600.730469 637.121094 594.96875 631.359375 587.890625 631.359375 Z M 570.976562 647.105469 C 568.234375 647.105469 566.011719 649.328125 566.011719 652.070312 L 566.011719 668.984375 C 566.011719 670.589844 564.707031 671.894531 563.105469 671.894531 C 561.5 671.894531 560.195312 670.589844 560.195312 668.984375 L 560.195312 652.070312 C 560.195312 649.328125 557.972656 647.105469 555.230469 647.105469 L 538.316406 647.105469 C 536.714844 647.105469 535.410156 645.800781 535.410156 644.199219 C 535.410156 642.59375 536.714844 641.289062 538.316406 641.289062 L 555.230469 641.289062 C 557.972656 641.289062 560.195312 639.066406 560.195312 636.324219 L 560.195312 619.410156 C 560.195312 617.808594 561.5 616.503906 563.105469 616.503906 C 564.707031 616.503906 566.011719 617.808594 566.011719 619.410156 L 566.011719 636.324219 C 566.011719 639.066406 568.234375 641.289062 570.976562 641.289062 L 587.890625 641.289062 C 589.496094 641.289062 590.800781 642.59375 590.800781 644.199219 C 590.800781 645.800781 589.496094 647.105469 587.890625 647.105469 Z M 570.976562 647.105469 " fill-opacity="1" fill-rule="nonzero"/><path fill="#6b6b6b" d="M 271.683594 657.039062 C 278.765625 657.039062 284.523438 651.277344 284.523438 644.199219 C 284.523438 637.121094 278.765625 631.359375 271.683594 631.359375 L 222.109375 631.359375 C 215.03125 631.359375 209.273438 637.121094 209.273438 644.199219 C 209.273438 651.277344 215.03125 657.039062 222.109375 657.039062 Z M 219.203125 644.199219 C 219.203125 642.597656 220.507812 641.292969 222.109375 641.292969 L 271.683594 641.292969 C 273.289062 641.292969 274.59375 642.597656 274.59375 644.199219 C 274.59375 645.800781 273.289062 647.105469 271.683594 647.105469 L 222.109375 647.105469 C 220.507812 647.105469 219.203125 645.800781 219.203125 644.199219 Z M 219.203125 644.199219 " fill-opacity="1" fill-rule="nonzero"/><path fill="#6b6b6b" d="M 371.042969 185.886719 C 371.042969 187.894531 372.253906 189.707031 374.109375 190.472656 C 374.722656 190.730469 375.367188 190.851562 376.007812 190.851562 C 377.300781 190.851562 378.570312 190.347656 379.519531 189.398438 L 392.933594 175.984375 L 423.523438 175.984375 C 432.035156 175.984375 438.960938 169.0625 438.960938 160.550781 L 438.960938 139.796875 C 438.960938 131.285156 432.035156 124.363281 423.523438 124.363281 L 386.476562 124.363281 C 377.96875 124.363281 371.042969 131.285156 371.042969 139.796875 Z M 386.476562 134.292969 L 423.523438 134.292969 C 426.558594 134.292969 429.027344 136.761719 429.027344 139.796875 L 429.027344 160.550781 C 429.027344 163.585938 426.558594 166.054688 423.523438 166.054688 L 390.875 166.054688 C 389.558594 166.054688 388.296875 166.578125 387.363281 167.507812 L 380.972656 173.898438 L 380.972656 139.796875 C 380.972656 136.761719 383.441406 134.292969 386.476562 134.292969 Z M 386.476562 134.292969 " fill-opacity="1" fill-rule="nonzero"/></svg>