<svg xmlns="http://www.w3.org/2000/svg" xmlns:xlink="http://www.w3.org/1999/xlink" width="1080" zoomAndPan="magnify" viewBox="0 0 810 809.999993" height="1080" preserveAspectRatio="xMidYMid meet" version="1.0"><defs><clipPath id="9d01da8fb2"><path d="M 138.796875 152.761719 L 671.296875 152.761719 L 671.296875 685.261719 L 138.796875 685.261719 Z M 138.796875 152.761719 " clip-rule="nonzero"/></clipPath></defs><g clip-path="url(#9d01da8fb2)"><path fill="#6b6b6b" d="M 461.019531 204.226562 C 483.335938 204.226562 501.425781 222.316406 501.425781 244.628906 C 501.425781 266.945312 483.335938 285.03125 461.019531 285.03125 C 438.707031 285.03125 420.617188 266.945312 420.617188 244.628906 C 420.617188 222.316406 438.707031 204.226562 461.019531 204.226562 Z M 392.148438 367.433594 L 529.890625 367.433594 C 535.703125 367.433594 539.917969 362.019531 538.496094 356.386719 C 529.738281 321.753906 498.375 296.121094 461.019531 296.121094 C 423.667969 296.121094 392.304688 321.753906 383.546875 356.386719 C 382.125 362.023438 386.335938 367.433594 392.148438 367.433594 Z M 212.742188 606.683594 C 208.511719 609.113281 203.109375 607.65625 200.679688 603.425781 C 198.246094 599.195312 199.707031 593.792969 203.9375 591.363281 C 225.167969 579.105469 234.207031 546.363281 243.675781 512.070312 C 259.273438 455.578125 275.917969 395.292969 348.945312 395.292969 C 417.046875 395.292969 435.070312 448.1875 451.503906 496.414062 C 462.042969 527.335938 471.832031 556.066406 494.066406 562.023438 C 498.792969 563.285156 501.601562 568.140625 500.339844 572.871094 C 499.074219 577.597656 494.21875 580.40625 489.492188 579.144531 C 458.117188 570.738281 446.851562 537.679688 434.726562 502.097656 C 420.257812 459.625 404.382812 413.035156 348.945312 413.035156 C 289.375 413.035156 274.585938 466.59375 260.730469 516.78125 C 250.277344 554.636719 240.300781 590.769531 212.742188 606.683594 Z M 175.328125 345.683594 L 180.421875 345.683594 C 185.300781 345.683594 189.261719 349.640625 189.261719 354.523438 C 189.261719 359.402344 185.300781 363.359375 180.421875 363.359375 L 175.328125 363.359375 L 175.328125 394.65625 L 180.421875 394.65625 C 185.300781 394.65625 189.261719 398.613281 189.261719 403.492188 C 189.261719 408.375 185.300781 412.332031 180.421875 412.332031 L 175.328125 412.332031 L 175.328125 443.625 L 180.421875 443.625 C 185.300781 443.625 189.261719 447.582031 189.261719 452.464844 C 189.261719 457.347656 185.300781 461.304688 180.421875 461.304688 L 175.328125 461.304688 L 175.328125 492.597656 L 180.421875 492.597656 C 185.300781 492.597656 189.261719 496.554688 189.261719 501.4375 C 189.261719 506.316406 185.300781 510.273438 180.421875 510.273438 L 175.328125 510.273438 L 175.328125 541.570312 L 180.421875 541.570312 C 185.300781 541.570312 189.261719 545.527344 189.261719 550.40625 C 189.261719 555.289062 185.300781 559.246094 180.421875 559.246094 L 175.328125 559.246094 L 175.328125 590.539062 L 180.421875 590.539062 C 185.300781 590.539062 189.261719 594.496094 189.261719 599.378906 C 189.261719 604.261719 185.300781 608.21875 180.421875 608.21875 L 175.328125 608.21875 L 175.328125 639.476562 L 206.585938 639.476562 L 206.585938 627.402344 C 206.585938 622.519531 210.546875 618.5625 215.425781 618.5625 C 220.308594 618.5625 224.265625 622.519531 224.265625 627.402344 L 224.265625 639.476562 L 255.558594 639.476562 L 255.558594 627.402344 C 255.558594 622.519531 259.515625 618.5625 264.398438 618.5625 C 269.28125 618.5625 273.238281 622.519531 273.238281 627.402344 L 273.238281 639.476562 L 304.53125 639.476562 L 304.53125 627.402344 C 304.53125 622.519531 308.488281 618.5625 313.371094 618.5625 C 318.25 618.5625 322.207031 622.519531 322.207031 627.402344 L 322.207031 639.476562 L 353.5 639.476562 L 353.5 627.402344 C 353.5 622.519531 357.460938 618.5625 362.339844 618.5625 C 367.222656 618.5625 371.179688 622.519531 371.179688 627.402344 L 371.179688 639.476562 L 402.472656 639.476562 L 402.472656 627.402344 C 402.472656 622.519531 406.429688 618.5625 411.3125 618.5625 C 416.195312 618.5625 420.152344 622.519531 420.152344 627.402344 L 420.152344 639.476562 L 451.445312 639.476562 L 451.445312 627.402344 C 451.445312 622.519531 455.402344 618.5625 460.285156 618.5625 C 465.164062 618.5625 469.121094 622.519531 469.121094 627.402344 L 469.121094 639.476562 L 498.289062 639.476562 C 503.1875 639.476562 507.160156 643.449219 507.160156 648.351562 C 507.160156 653.25 503.1875 657.222656 498.289062 657.222656 L 166.457031 657.222656 C 161.554688 657.222656 157.582031 653.25 157.582031 648.351562 L 157.582031 325.160156 C 157.582031 320.261719 161.554688 316.289062 166.457031 316.289062 C 171.355469 316.289062 175.328125 320.261719 175.328125 325.160156 Z M 599.5625 541.890625 C 560 541.890625 527.925781 573.964844 527.925781 613.527344 C 527.925781 653.09375 560 685.167969 599.5625 685.167969 C 639.125 685.167969 671.203125 653.09375 671.203125 613.527344 C 671.203125 573.964844 639.125 541.890625 599.5625 541.890625 Z M 627.097656 573.449219 L 631.207031 569.335938 C 634.671875 565.871094 640.292969 565.871094 643.753906 569.335938 C 647.21875 572.800781 647.21875 578.421875 643.753906 581.882812 L 639.644531 585.996094 C 636.179688 589.460938 630.5625 589.460938 627.097656 585.996094 C 623.632812 582.53125 623.632812 576.910156 627.097656 573.449219 Z M 590.691406 559.90625 C 590.691406 555.003906 594.664062 551.03125 599.5625 551.03125 C 604.464844 551.03125 608.4375 555.003906 608.4375 559.90625 L 608.4375 565.71875 C 608.4375 570.617188 604.464844 574.589844 599.5625 574.589844 C 594.664062 574.589844 590.691406 570.617188 590.691406 565.71875 Z M 545.9375 622.402344 C 541.039062 622.402344 537.066406 618.429688 537.066406 613.527344 C 537.066406 608.628906 541.039062 604.65625 545.9375 604.65625 L 551.753906 604.65625 C 556.652344 604.65625 560.625 608.628906 560.625 613.527344 C 560.625 618.429688 556.652344 622.402344 551.753906 622.402344 Z M 572.027344 653.609375 L 567.917969 657.722656 C 564.453125 661.1875 558.835938 661.1875 555.371094 657.722656 C 551.90625 654.253906 551.90625 648.636719 555.371094 645.171875 L 559.480469 641.0625 C 562.945312 637.597656 568.566406 637.597656 572.027344 641.0625 C 575.496094 644.527344 575.496094 650.144531 572.027344 653.609375 Z M 572.027344 585.996094 C 568.5625 589.460938 562.945312 589.460938 559.480469 585.996094 L 555.371094 581.882812 C 551.90625 578.417969 551.90625 572.800781 555.371094 569.335938 C 558.835938 565.871094 564.453125 565.871094 567.917969 569.335938 L 572.027344 573.449219 C 575.496094 576.910156 575.496094 582.53125 572.027344 585.996094 Z M 608.4375 667.152344 C 608.4375 672.054688 604.464844 676.027344 599.5625 676.027344 C 594.664062 676.027344 590.691406 672.054688 590.691406 667.152344 L 590.691406 661.339844 C 590.691406 656.441406 594.664062 652.464844 599.5625 652.464844 C 604.464844 652.464844 608.4375 656.441406 608.4375 661.339844 Z M 612.175781 631.011719 L 595.875 621.601562 C 592.816406 620.199219 590.691406 617.113281 590.691406 613.527344 L 590.691406 588.046875 C 590.691406 583.144531 594.664062 579.171875 599.5625 579.171875 C 604.464844 579.171875 608.4375 583.144531 608.4375 588.046875 L 608.4375 608.449219 L 620.976562 615.691406 C 625.207031 618.125 626.667969 623.523438 624.238281 627.753906 C 621.804688 631.984375 616.40625 633.441406 612.175781 631.011719 Z M 643.753906 657.722656 C 640.289062 661.1875 634.671875 661.1875 631.207031 657.722656 L 627.097656 653.609375 C 623.632812 650.144531 623.632812 644.527344 627.097656 641.0625 C 630.5625 637.597656 636.179688 637.597656 639.644531 641.0625 L 643.753906 645.171875 C 647.21875 648.636719 647.21875 654.253906 643.753906 657.722656 Z M 653.1875 622.402344 L 647.375 622.402344 C 642.472656 622.402344 638.5 618.429688 638.5 613.527344 C 638.5 608.628906 642.472656 604.65625 647.375 604.65625 L 653.1875 604.65625 C 658.089844 604.65625 662.0625 608.628906 662.0625 613.527344 C 662.0625 618.429688 658.089844 622.402344 653.1875 622.402344 Z M 202.695312 152.761719 C 167.40625 152.761719 138.796875 181.371094 138.796875 216.660156 C 138.796875 251.949219 167.40625 280.558594 202.695312 280.558594 C 237.984375 280.558594 266.59375 251.949219 266.59375 216.660156 C 266.59375 181.371094 237.984375 152.761719 202.695312 152.761719 Z M 211.566406 255.914062 L 211.566406 257.097656 C 211.566406 261.996094 207.59375 265.96875 202.695312 265.96875 C 197.792969 265.96875 193.820312 261.996094 193.820312 257.097656 L 193.820312 255.730469 C 183.917969 253.082031 176.132812 246.128906 173.597656 235.964844 C 172.429688 231.21875 175.335938 226.421875 180.082031 225.253906 C 184.828125 224.085938 189.625 226.988281 190.792969 231.734375 C 192.164062 237.238281 198.1875 239.34375 203.320312 239.222656 C 203.8125 239.207031 204.492188 239.152344 205.355469 239.046875 C 208.316406 238.6875 214.445312 237.210938 214.351562 233.296875 L 214.277344 232.660156 C 213.632812 227.351562 205.574219 225.863281 201.332031 225.167969 C 188.441406 223.050781 176.199219 216.699219 175.488281 202.046875 C 174.910156 190.140625 182.847656 181.054688 193.820312 177.746094 L 193.820312 176.226562 C 193.820312 171.324219 197.796875 167.351562 202.695312 167.351562 C 207.597656 167.351562 211.570312 171.324219 211.570312 176.226562 L 211.570312 177.632812 C 219.183594 179.863281 226.019531 185.078125 229.6875 193.816406 C 231.582031 198.335938 229.457031 203.535156 224.941406 205.429688 C 220.421875 207.324219 215.222656 205.199219 213.328125 200.679688 C 211.101562 195.378906 205.503906 193.285156 200.117188 194.371094 C 196.671875 195.0625 192.972656 197.226562 193.167969 201.214844 C 193.386719 205.753906 200.703125 207.125 204.175781 207.695312 C 217.421875 209.871094 230.074219 215.648438 231.886719 230.582031 C 231.960938 231.183594 232.007812 231.953125 232.03125 232.878906 C 232.328125 245.398438 222.875 253.234375 211.566406 255.914062 Z M 211.566406 255.914062 " fill-opacity="1" fill-rule="evenodd"/></g></svg>