<svg xmlns="http://www.w3.org/2000/svg" xmlns:xlink="http://www.w3.org/1999/xlink" width="1080" zoomAndPan="magnify" viewBox="0 0 810 809.999993" height="1080" preserveAspectRatio="xMidYMid meet" version="1.0"><defs><clipPath id="607c382ad9"><path d="M 81 240 L 681.75 240 L 681.75 644 L 81 644 Z M 81 240 " clip-rule="nonzero"/></clipPath></defs><g clip-path="url(#607c382ad9)"><path fill="#6b6b6b" d="M 662.535156 568.90625 L 641.898438 568.90625 C 642.835938 566.089844 643.773438 562.808594 643.773438 559.058594 L 643.773438 269.226562 C 643.773438 253.28125 631.113281 240.621094 615.167969 240.621094 L 538.253906 240.621094 C 540.128906 244.839844 541.535156 249.53125 541.535156 254.691406 C 541.535156 256.097656 541.535156 257.972656 541.066406 259.378906 L 615.167969 259.378906 C 620.324219 259.378906 625.015625 263.601562 625.015625 269.226562 L 625.015625 559.058594 C 625.015625 564.214844 620.792969 568.90625 615.167969 568.90625 L 437.421875 568.90625 C 432.265625 568.90625 428.042969 573.125 428.042969 578.285156 C 428.042969 583.445312 423.824219 587.664062 418.664062 587.664062 L 343.628906 587.664062 C 338.46875 587.664062 334.25 583.445312 334.25 578.285156 C 334.25 573.125 330.027344 568.90625 324.867188 568.90625 L 147.125 568.90625 C 141.96875 568.90625 137.277344 564.683594 137.277344 559.058594 L 137.277344 269.226562 C 137.277344 264.070312 141.5 259.378906 147.125 259.378906 L 256.398438 259.378906 L 256.398438 243.433594 L 245.613281 240.621094 L 147.125 240.621094 C 131.179688 240.621094 118.519531 253.28125 118.519531 269.226562 L 118.519531 559.058594 C 118.519531 562.339844 118.988281 565.621094 120.394531 568.90625 L 99.757812 568.90625 C 89.441406 568.90625 81 577.347656 81 587.664062 L 81 608.300781 C 81 627.996094 96.945312 643.941406 116.640625 643.941406 L 646.121094 643.941406 C 665.816406 643.941406 681.761719 627.996094 681.761719 608.300781 L 681.761719 587.664062 C 681.292969 577.347656 672.851562 568.90625 662.535156 568.90625 Z M 662.535156 608.300781 C 662.535156 617.679688 655.03125 625.183594 645.648438 625.183594 L 116.640625 625.183594 C 107.261719 625.183594 99.757812 617.679688 99.757812 608.300781 L 99.757812 587.664062 L 317.367188 587.664062 C 321.117188 598.449219 331.433594 606.421875 343.628906 606.421875 L 418.664062 606.421875 C 430.859375 606.421875 441.175781 598.449219 444.925781 587.664062 L 662.535156 587.664062 Z M 662.535156 608.300781 " fill-opacity="1" fill-rule="nonzero"/></g><path fill="#6b6b6b" d="M 581.871094 292.207031 C 587.496094 292.207031 592.1875 296.898438 592.1875 302.527344 L 592.1875 525.757812 C 592.1875 531.386719 587.496094 536.078125 581.871094 536.078125 L 180.421875 536.078125 C 174.796875 536.078125 170.105469 531.386719 170.105469 525.757812 L 170.105469 302.527344 C 170.105469 296.898438 174.796875 292.207031 180.421875 292.207031 L 255.929688 292.207031 L 255.929688 273.449219 L 180.421875 273.449219 C 164.476562 273.449219 151.347656 286.582031 151.347656 302.527344 L 151.347656 525.757812 C 151.347656 541.703125 164.476562 554.835938 180.421875 554.835938 L 581.871094 554.835938 C 597.816406 554.835938 610.945312 541.703125 610.945312 525.757812 L 610.945312 302.527344 C 610.945312 286.582031 597.8125 273.449219 581.871094 273.449219 L 551.386719 273.449219 C 553.261719 279.546875 552.792969 286.109375 550.449219 292.207031 Z M 581.871094 292.207031 " fill-opacity="1" fill-rule="nonzero"/><path fill="#6b6b6b" d="M 520.902344 259.847656 C 521.371094 258.441406 521.839844 256.566406 521.839844 254.691406 C 521.839844 250.46875 519.964844 246.71875 517.148438 244.371094 L 517.148438 212.480469 C 517.148438 212.480469 517.148438 212.480469 517.148438 212.011719 C 517.148438 211.074219 517.148438 210.605469 516.679688 210.136719 C 516.679688 209.667969 516.679688 209.667969 516.210938 209.199219 C 516.210938 208.730469 515.742188 208.261719 515.742188 207.792969 C 515.273438 207.324219 514.804688 206.386719 514.335938 205.914062 C 513.398438 204.976562 511.992188 204.039062 510.117188 203.570312 L 379.738281 166.523438 C 377.863281 166.050781 376.457031 166.050781 374.582031 166.523438 L 244.203125 203.101562 C 239.984375 204.039062 237.167969 207.792969 237.167969 212.011719 C 237.167969 216.234375 239.984375 219.984375 244.203125 220.921875 L 274.21875 229.363281 L 274.21875 295.023438 C 274.21875 303.464844 279.378906 310.96875 286.882812 313.78125 L 287.820312 314.25 C 303.765625 320.347656 341.28125 334.886719 380.675781 334.886719 C 422.886719 334.886719 452.898438 321.285156 467.4375 315.1875 L 468.84375 314.25 C 475.878906 310.96875 480.570312 303.933594 480.570312 295.960938 L 480.570312 230.300781 L 498.390625 225.144531 L 498.390625 244.371094 C 495.578125 246.71875 493.703125 250.46875 493.703125 254.691406 C 493.703125 257.972656 494.640625 260.785156 496.515625 263.132812 L 489.011719 276.730469 C 486.667969 281.421875 488.074219 287.050781 492.761719 289.394531 C 494.171875 290.332031 495.578125 290.332031 497.453125 290.332031 C 500.734375 290.332031 504.019531 288.457031 505.894531 285.640625 L 510.117188 277.667969 L 515.742188 286.109375 C 517.617188 288.925781 520.433594 290.332031 523.714844 290.332031 C 525.589844 290.332031 527 289.863281 528.875 288.925781 C 533.09375 286.109375 534.503906 280.484375 531.6875 275.792969 Z M 377.394531 184.8125 L 474.472656 212.480469 L 382.554688 239.683594 L 282.191406 212.011719 Z M 461.8125 295.492188 C 461.8125 295.960938 461.339844 296.429688 460.871094 296.898438 L 459.464844 297.835938 C 445.394531 304.402344 418.664062 316.125 380.675781 316.125 C 344.566406 316.125 310.800781 302.996094 294.386719 296.898438 L 293.449219 296.429688 C 292.976562 296.429688 292.507812 295.960938 292.507812 295.023438 L 292.507812 234.523438 L 379.269531 258.441406 C 380.207031 258.441406 381.144531 258.910156 381.617188 258.910156 C 382.554688 258.910156 383.492188 258.910156 384.429688 258.441406 L 461.339844 235.460938 L 461.339844 295.492188 Z M 461.8125 295.492188 " fill-opacity="1" fill-rule="nonzero"/><path fill="#6b6b6b" d="M 263.902344 386.003906 C 263.902344 375.6875 255.460938 367.246094 245.140625 367.246094 L 226.382812 367.246094 C 216.066406 367.246094 207.625 375.6875 207.625 386.003906 L 207.625 404.761719 C 207.625 415.082031 216.066406 423.523438 226.382812 423.523438 L 245.140625 423.523438 C 255.460938 423.523438 263.902344 415.082031 263.902344 404.761719 Z M 226.382812 404.761719 L 226.382812 386.003906 L 245.140625 386.003906 L 245.140625 404.761719 Z M 226.382812 404.761719 " fill-opacity="1" fill-rule="nonzero"/><path fill="#6b6b6b" d="M 245.140625 442.28125 L 226.382812 442.28125 C 216.066406 442.28125 207.625 450.722656 207.625 461.039062 L 207.625 479.800781 C 207.625 490.117188 216.066406 498.558594 226.382812 498.558594 L 245.140625 498.558594 C 255.460938 498.558594 263.902344 490.117188 263.902344 479.800781 L 263.902344 461.039062 C 263.902344 450.722656 255.460938 442.28125 245.140625 442.28125 Z M 226.382812 479.800781 L 226.382812 461.039062 L 245.140625 461.039062 L 245.140625 479.800781 Z M 226.382812 479.800781 " fill-opacity="1" fill-rule="nonzero"/><path fill="#6b6b6b" d="M 320.179688 386.003906 C 315.019531 386.003906 310.800781 390.222656 310.800781 395.382812 C 310.800781 400.542969 315.019531 404.761719 320.179688 404.761719 L 545.289062 404.761719 C 550.449219 404.761719 554.667969 400.542969 554.667969 395.382812 C 554.667969 390.222656 550.449219 386.003906 545.289062 386.003906 Z M 320.179688 386.003906 " fill-opacity="1" fill-rule="nonzero"/><path fill="#6b6b6b" d="M 545.289062 479.800781 C 550.449219 479.800781 554.667969 475.578125 554.667969 470.417969 C 554.667969 465.261719 550.449219 461.039062 545.289062 461.039062 L 320.179688 461.039062 C 315.019531 461.039062 310.800781 465.261719 310.800781 470.417969 C 310.800781 475.578125 315.019531 479.800781 320.179688 479.800781 Z M 545.289062 479.800781 " fill-opacity="1" fill-rule="nonzero"/></svg>