<svg xmlns="http://www.w3.org/2000/svg" xmlns:xlink="http://www.w3.org/1999/xlink" width="1080" zoomAndPan="magnify" viewBox="0 0 810 809.999993" height="1080" preserveAspectRatio="xMidYMid meet" version="1.0"><defs><clipPath id="e1b4988b00"><path d="M 204 184 L 614.742188 184 L 614.742188 593 L 204 593 Z M 204 184 " clip-rule="nonzero"/></clipPath></defs><g clip-path="url(#e1b4988b00)"><path fill="#000000" d="M 614.742188 389.347656 C 612.34375 173.003906 323.339844 105.046875 225.703125 298.128906 C 221.554688 306.8125 234.5 313.195312 238.835938 304.644531 C 249.945312 282.207031 265.011719 262.773438 282.863281 246.804688 C 292.410156 254.304688 302.683594 260.992188 313.550781 266.773438 C 308.011719 279.636719 303.261719 293.691406 299.535156 308.878906 C 298.570312 312.8125 300.976562 316.789062 304.90625 317.75 C 308.824219 318.730469 312.800781 316.308594 313.773438 312.375 C 317.242188 298.222656 321.621094 285.164062 326.675781 273.234375 C 350.664062 284.027344 376.140625 290.042969 402.21875 291.15625 L 402.21875 310.628906 C 402.382812 320.308594 416.722656 320.238281 416.875 310.628906 C 416.875 310.628906 416.875 291.425781 416.875 291.425781 C 442.546875 290.820312 468.65625 285.148438 493.128906 274.859375 C 497.886719 286.34375 502.007812 298.875 505.320312 312.375 C 506.144531 315.722656 509.136719 317.964844 512.429688 317.964844 C 517.085938 318.035156 520.753906 313.414062 519.554688 308.878906 C 516.019531 294.464844 511.589844 281.035156 506.414062 268.710938 C 517.632812 263.066406 528.359375 256.480469 538.449219 249.03125 C 575.089844 282.789062 598.476562 330.699219 599.949219 384.011719 C 587.46875 388.058594 574.882812 391.800781 562.421875 395.007812 C 554.113281 397.078125 555.914062 409.554688 564.246094 409.449219 C 576.183594 407.078125 587.9375 402.972656 599.816406 399.425781 C 597.128906 450.859375 573.984375 496.949219 538.402344 529.707031 C 528.257812 522.148438 517.542969 515.550781 506.410156 509.992188 C 511.585938 497.667969 516.019531 484.230469 519.554688 469.816406 C 521.742188 460.433594 507.660156 457.007812 505.320312 466.320312 C 502.007812 479.828125 497.882812 492.363281 493.121094 503.847656 C 468.808594 493.574219 442.703125 487.90625 416.875 487.304688 L 416.875 468.066406 C 416.695312 458.382812 402.378906 458.457031 402.21875 468.066406 C 402.21875 468.066406 402.21875 487.558594 402.21875 487.558594 C 375.84375 488.765625 350.5 494.777344 326.691406 505.492188 C 321.628906 493.554688 317.246094 480.484375 313.773438 466.320312 C 311.339844 456.941406 297.382812 460.457031 299.535156 469.816406 C 303.265625 485.019531 308.019531 499.082031 313.566406 511.953125 C 302.746094 517.707031 292.523438 524.355469 283.023438 531.800781 C 246.140625 498.941406 222.039062 452.007812 219.28125 399.484375 C 230.78125 403.136719 242.144531 406.480469 253.054688 409.226562 C 256.878906 410.21875 260.972656 407.863281 261.949219 403.90625 C 262.9375 399.980469 260.558594 395.988281 256.632812 395 C 244.558594 391.957031 231.945312 388.253906 219.207031 384.097656 C 219.699219 365.789062 222.621094 347.871094 228.171875 330.800781 C 231.066406 321.628906 217.332031 317.148438 214.234375 326.261719 C 134.472656 629.144531 596.320312 705.160156 614.742188 389.347656 Z M 294.429688 237.25 C 312.535156 223.480469 332.996094 213.027344 355.007812 206.515625 C 341.683594 218.203125 329.734375 234.097656 319.808594 253.5 C 310.882812 248.707031 302.386719 243.285156 294.429688 237.25 Z M 332.875 259.945312 C 350.796875 224.777344 375.484375 202.550781 402.21875 199.101562 L 402.21875 276.492188 C 378.015625 275.304688 354.761719 269.757812 332.875 259.945312 Z M 416.875 276.753906 L 416.875 199.101562 C 444.003906 202.601562 469.035156 225.4375 487.015625 261.523438 C 464.464844 270.945312 440.464844 276.15625 416.875 276.753906 Z M 500.269531 255.386719 C 490.195312 235.191406 477.941406 218.714844 464.246094 206.65625 C 487.28125 213.582031 508.476562 224.769531 526.957031 239.289062 C 518.488281 245.320312 509.558594 250.691406 500.269531 255.386719 Z M 487.007812 517.1875 C 469.027344 553.261719 444 576.09375 416.875 579.59375 L 416.875 501.976562 C 440.597656 502.570312 464.589844 507.769531 487.007812 517.1875 Z M 402.21875 502.226562 L 402.21875 579.59375 C 375.492188 576.144531 350.8125 553.929688 332.890625 518.78125 C 354.609375 509.042969 377.738281 503.496094 402.21875 502.226562 Z M 294.605469 541.347656 C 302.511719 535.363281 310.953125 529.984375 319.824219 525.222656 C 329.707031 544.535156 341.59375 560.371094 354.847656 572.039062 C 332.835938 565.421875 312.492188 554.9375 294.605469 541.347656 Z M 500.265625 523.3125 C 509.609375 528 518.582031 533.417969 526.941406 539.417969 C 508.464844 553.933594 487.277344 565.117188 464.246094 572.039062 C 477.941406 559.980469 490.195312 543.503906 500.265625 523.3125 Z M 500.265625 523.3125 " fill-opacity="1" fill-rule="nonzero"/></g><path fill="#000000" d="M 384.652344 375.535156 C 394.277344 375.382812 394.285156 361.019531 384.652344 360.863281 C 384.652344 360.863281 369.558594 360.863281 369.558594 360.863281 C 365.511719 360.863281 362.230469 364.144531 362.230469 368.199219 L 362.230469 410.082031 C 362.230469 414.136719 365.511719 417.417969 369.558594 417.417969 L 384.296875 417.417969 C 393.929688 417.246094 393.929688 402.910156 384.296875 402.746094 C 384.296875 402.746094 376.886719 402.746094 376.886719 402.746094 L 376.886719 396.699219 L 384.296875 396.699219 C 388.34375 396.699219 391.625 393.417969 391.625 389.363281 C 391.625 385.308594 388.34375 382.027344 384.296875 382.027344 L 376.886719 382.027344 L 376.886719 375.535156 Z M 384.652344 375.535156 " fill-opacity="1" fill-rule="nonzero"/><path fill="#000000" d="M 333.851562 368.199219 L 333.851562 385.113281 L 320.441406 364.230469 C 316.800781 358.109375 306.71875 361.089844 306.949219 368.199219 C 306.949219 368.199219 306.949219 410.082031 306.949219 410.082031 C 306.949219 414.136719 310.230469 417.417969 314.277344 417.417969 C 318.324219 417.417969 321.605469 414.136719 321.605469 410.082031 L 321.605469 393.167969 L 335.015625 414.050781 C 336.773438 416.796875 340.183594 418.039062 343.246094 417.117188 C 346.367188 416.199219 348.511719 413.332031 348.511719 410.082031 L 348.511719 368.199219 C 348.347656 358.566406 334.019531 358.546875 333.851562 368.199219 Z M 333.851562 368.199219 " fill-opacity="1" fill-rule="nonzero"/><path fill="#000000" d="M 451.265625 366.207031 L 446.40625 383.46875 L 441.546875 366.207031 C 439.726562 359.292969 428.839844 359.277344 426.996094 366.207031 C 426.996094 366.207031 422.140625 383.464844 422.140625 383.464844 L 417.28125 366.207031 C 414.519531 357.011719 400.710938 360.839844 403.175781 370.191406 C 403.175781 370.191406 415.089844 412.507812 415.089844 412.507812 C 415.632812 413.976562 416.488281 415.277344 417.667969 416.300781 C 421.648438 419.558594 427.769531 417.316406 429.195312 412.507812 C 429.195312 412.507812 434.273438 394.460938 434.273438 394.460938 L 439.355469 412.507812 C 440.777344 417.3125 446.90625 419.5625 450.882812 416.300781 C 452.058594 415.273438 452.917969 413.976562 453.460938 412.507812 C 453.460938 412.507812 465.371094 370.191406 465.371094 370.191406 C 467.820312 360.882812 454.082031 356.972656 451.265625 366.207031 Z M 451.265625 366.207031 " fill-opacity="1" fill-rule="nonzero"/><path fill="#000000" d="M 494.597656 375.535156 C 495.828125 375.535156 496.695312 376.289062 497.101562 376.988281 C 502.046875 385.253906 514.472656 378.085938 509.796875 369.652344 C 501.183594 354.429688 476.421875 360.359375 476.570312 378.429688 C 476.570312 388.207031 484.605469 396.476562 494.597656 396.476562 C 496.191406 396.476562 497.488281 397.78125 497.488281 399.851562 C 497.753906 402.46875 493.28125 403.789062 491.875 401.675781 C 485.804688 394.234375 474.484375 403.457031 480.488281 410.917969 C 490.484375 423.613281 512.558594 416.421875 512.144531 399.375 C 512.144531 389.683594 504.273438 381.804688 494.117188 381.804688 C 490.53125 381.5625 490.039062 375.308594 494.597656 375.535156 Z M 494.597656 375.535156 " fill-opacity="1" fill-rule="nonzero"/><path fill="#000000" d="M 485.027344 446.058594 L 520.277344 446.058594 C 532.402344 446.058594 542.261719 436.1875 542.261719 424.050781 L 542.261719 354.644531 C 542.261719 342.507812 532.402344 332.636719 520.277344 332.636719 L 298.8125 332.636719 C 286.691406 332.636719 276.828125 342.507812 276.828125 354.644531 L 276.828125 424.050781 C 276.828125 436.1875 286.691406 446.058594 298.8125 446.058594 L 455.714844 446.058594 C 465.335938 445.886719 465.359375 431.558594 455.714844 431.386719 C 455.714844 431.386719 298.8125 431.386719 298.8125 431.386719 C 294.773438 431.386719 291.484375 428.097656 291.484375 424.050781 L 291.484375 354.644531 C 291.484375 350.597656 294.773438 347.308594 298.8125 347.308594 L 520.277344 347.308594 C 524.316406 347.308594 527.605469 350.597656 527.605469 354.644531 L 527.605469 424.050781 C 527.605469 428.097656 524.316406 431.386719 520.277344 431.386719 L 485.027344 431.386719 C 475.371094 431.542969 475.421875 445.910156 485.027344 446.058594 Z M 485.027344 446.058594 " fill-opacity="1" fill-rule="nonzero"/></svg>