<svg xmlns="http://www.w3.org/2000/svg" xmlns:xlink="http://www.w3.org/1999/xlink" width="1080" zoomAndPan="magnify" viewBox="0 0 810 809.999993" height="1080" preserveAspectRatio="xMidYMid meet" version="1.0"><defs><clipPath id="da52947d1b"><path d="M 81 578 L 697.5 578 L 697.5 607.015625 L 81 607.015625 Z M 81 578 " clip-rule="nonzero"/></clipPath><clipPath id="fe47eac571"><path d="M 121 202.765625 L 657 202.765625 L 657 573 L 121 573 Z M 121 202.765625 " clip-rule="nonzero"/></clipPath></defs><g clip-path="url(#da52947d1b)"><path fill="#a4a4a3" d="M 435.476562 594.703125 L 342.847656 594.703125 C 340.964844 594.703125 339.425781 593.164062 339.425781 591.28125 C 339.425781 589.402344 340.964844 587.863281 342.847656 587.863281 L 435.476562 587.863281 C 437.363281 587.863281 438.898438 589.402344 438.898438 591.28125 C 438.898438 593.164062 437.363281 594.703125 435.476562 594.703125 Z M 203.933594 596.453125 C 201.871094 596.453125 200.203125 594.78125 200.203125 592.722656 C 200.203125 590.660156 201.871094 588.992188 203.933594 588.992188 C 205.992188 588.992188 207.664062 590.660156 207.664062 592.722656 C 207.664062 594.78125 205.992188 596.453125 203.933594 596.453125 Z M 185.28125 596.453125 C 183.222656 596.453125 181.550781 594.78125 181.550781 592.722656 C 181.550781 590.660156 183.222656 588.992188 185.28125 588.992188 C 187.34375 588.992188 189.011719 590.660156 189.011719 592.722656 C 189.011719 594.78125 187.34375 596.453125 185.28125 596.453125 Z M 166.628906 596.453125 C 164.570312 596.453125 162.902344 594.78125 162.902344 592.722656 C 162.902344 590.660156 164.570312 588.992188 166.628906 588.992188 C 168.691406 588.992188 170.359375 590.660156 170.359375 592.722656 C 170.359375 594.78125 168.691406 596.453125 166.628906 596.453125 Z M 147.980469 596.453125 C 145.917969 596.453125 144.25 594.78125 144.25 592.722656 C 144.25 590.660156 145.917969 588.992188 147.980469 588.992188 C 150.039062 588.992188 151.707031 590.660156 151.707031 592.722656 C 151.707031 594.78125 150.039062 596.453125 147.980469 596.453125 Z M 683.144531 578.257812 L 618.097656 578.257812 L 618.097656 580.34375 C 618.097656 584.457031 614.757812 587.804688 610.644531 587.804688 L 587.324219 587.804688 C 583.210938 587.804688 579.871094 584.457031 579.871094 580.34375 L 579.871094 578.257812 L 198.457031 578.257812 L 198.457031 580.34375 C 198.457031 584.457031 195.109375 587.804688 190.996094 587.804688 L 167.683594 587.804688 C 163.570312 587.804688 160.222656 584.457031 160.222656 580.34375 L 160.222656 578.257812 L 95.175781 578.257812 C 87.488281 578.257812 81.257812 580.609375 81.257812 583.519531 L 81.257812 591.40625 C 81.257812 596.757812 89.976562 601.199219 100.613281 603.65625 C 111.253906 606.113281 123.960938 607.191406 136.9375 607.191406 L 641.386719 607.191406 C 654.363281 607.191406 667.070312 606.113281 677.707031 603.65625 C 688.351562 601.199219 697.066406 596.757812 697.066406 591.40625 L 697.066406 583.519531 C 697.066406 580.609375 690.835938 578.257812 683.144531 578.257812 " fill-opacity="1" fill-rule="nonzero"/></g><g clip-path="url(#fe47eac571)"><path fill="#a4a4a3" d="M 628.636719 544.421875 L 149.6875 544.421875 L 149.6875 231.070312 L 628.636719 231.070312 Z M 375.171875 209.636719 C 379.078125 209.636719 382.246094 212.804688 382.246094 216.710938 C 382.246094 220.613281 379.078125 223.785156 375.171875 223.785156 C 371.269531 223.785156 368.101562 220.613281 368.101562 216.710938 C 368.101562 212.804688 371.269531 209.636719 375.171875 209.636719 Z M 403.152344 209.636719 C 407.058594 209.636719 410.222656 212.804688 410.222656 216.710938 C 410.222656 220.613281 407.058594 223.785156 403.152344 223.785156 C 399.246094 223.785156 396.078125 220.613281 396.078125 216.710938 C 396.078125 212.804688 399.246094 209.636719 403.152344 209.636719 Z M 639.960938 202.75 L 138.363281 202.75 C 128.992188 202.75 121.371094 210.375 121.371094 219.746094 L 121.371094 555.75 C 121.371094 565.113281 128.992188 572.734375 138.363281 572.734375 L 160.222656 572.734375 L 160.222656 571.601562 C 160.222656 567.492188 163.570312 564.144531 167.683594 564.144531 L 190.996094 564.144531 C 195.109375 564.144531 198.457031 567.492188 198.457031 571.601562 L 198.457031 572.734375 L 198.746094 572.734375 L 198.746094 572.730469 L 579.871094 572.730469 L 579.871094 571.601562 C 579.871094 567.492188 583.210938 564.144531 587.324219 564.144531 L 610.644531 564.144531 C 614.757812 564.144531 618.097656 567.492188 618.097656 571.601562 L 618.097656 572.734375 L 639.960938 572.734375 C 649.332031 572.734375 656.949219 565.113281 656.949219 555.75 L 656.949219 219.746094 C 656.949219 210.375 649.332031 202.75 639.960938 202.75 " fill-opacity="1" fill-rule="nonzero"/></g><path fill="#6b6b6b" d="M 398.5625 216.710938 C 398.5625 219.242188 400.617188 221.296875 403.152344 221.296875 C 405.679688 221.296875 407.734375 219.242188 407.734375 216.710938 C 407.734375 214.179688 405.679688 212.125 403.152344 212.125 C 400.617188 212.125 398.5625 214.179688 398.5625 216.710938 Z M 375.171875 212.125 C 377.707031 212.125 379.757812 214.179688 379.757812 216.710938 C 379.757812 219.242188 377.707031 221.296875 375.171875 221.296875 C 372.640625 221.296875 370.589844 219.242188 370.589844 216.710938 C 370.589844 214.179688 372.640625 212.125 375.171875 212.125 " fill-opacity="1" fill-rule="nonzero"/><path fill="#6b6b6b" d="M 610.734375 566.9375 L 587.234375 566.9375 C 584.722656 566.9375 582.664062 568.996094 582.664062 571.507812 L 582.664062 580.4375 C 582.664062 582.949219 584.722656 585.007812 587.234375 585.007812 L 610.734375 585.007812 C 613.246094 585.007812 615.304688 582.949219 615.304688 580.4375 L 615.304688 571.507812 C 615.304688 568.996094 613.246094 566.9375 610.734375 566.9375 Z M 195.660156 571.507812 L 195.660156 580.4375 C 195.660156 582.949219 193.601562 585.007812 191.085938 585.007812 L 167.589844 585.007812 C 165.078125 585.007812 163.019531 582.949219 163.019531 580.4375 L 163.019531 571.507812 C 163.019531 568.996094 165.078125 566.9375 167.589844 566.9375 L 191.085938 566.9375 C 193.601562 566.9375 195.660156 568.996094 195.660156 571.507812 " fill-opacity="1" fill-rule="nonzero"/><path fill="#6b6b6b" d="M 397.085938 459.589844 L 394.777344 417.929688 L 384.488281 417.929688 L 382.792969 459.792969 L 363.5 395.433594 L 366.148438 389.429688 C 366.4375 389.78125 366.742188 390.140625 367.070312 390.5 C 367.199219 390.640625 367.339844 390.78125 367.472656 390.929688 C 367.746094 391.214844 368.019531 391.503906 368.3125 391.796875 C 368.433594 391.914062 368.554688 392.035156 368.679688 392.160156 C 369.003906 392.46875 369.328125 392.78125 369.667969 393.089844 C 369.785156 393.199219 369.898438 393.300781 370.015625 393.40625 C 370.46875 393.816406 370.933594 394.226562 371.414062 394.632812 C 371.457031 394.667969 371.5 394.703125 371.542969 394.738281 C 371.992188 395.121094 372.453125 395.496094 372.917969 395.871094 C 373.023438 395.960938 373.132812 396.042969 373.242188 396.132812 C 373.703125 396.503906 374.167969 396.867188 374.636719 397.226562 C 374.675781 397.253906 374.714844 397.285156 374.75 397.3125 C 375.847656 398.15625 376.949219 398.964844 378.007812 399.71875 C 380.609375 401.570312 382.96875 403.117188 384.449219 404.058594 L 379.007812 410.257812 L 384.367188 415.550781 L 395.527344 415.550781 L 400.898438 409.433594 L 394.726562 403.34375 C 395.789062 402.628906 397.113281 401.722656 398.566406 400.683594 C 399.539062 399.992188 400.566406 399.242188 401.613281 398.441406 C 402.011719 398.144531 402.40625 397.84375 402.800781 397.535156 C 402.800781 397.53125 402.808594 397.523438 402.8125 397.523438 C 402.890625 397.464844 402.96875 397.398438 403.054688 397.335938 C 403.328125 397.125 403.605469 396.898438 403.886719 396.675781 C 405.195312 395.625 406.484375 394.535156 407.6875 393.4375 C 407.746094 393.386719 407.800781 393.332031 407.859375 393.28125 C 408.34375 392.835938 408.808594 392.390625 409.257812 391.945312 C 409.273438 391.929688 409.289062 391.914062 409.304688 391.898438 C 409.796875 391.402344 410.273438 390.910156 410.710938 390.425781 C 410.890625 390.230469 411.050781 390.039062 411.21875 389.84375 C 411.480469 389.535156 411.742188 389.230469 411.972656 388.921875 L 411.980469 388.847656 L 414.542969 394.542969 Z M 464.347656 427.371094 C 463.078125 424.683594 461.507812 422.148438 459.695312 419.789062 C 455.636719 414.511719 450.945312 410.894531 445.984375 407.988281 C 440.433594 404.742188 434.675781 402.496094 428.925781 400.230469 C 425.003906 398.695312 421.058594 397.289062 417.25 395.152344 L 417.265625 395.136719 L 413.007812 385.667969 L 412.171875 385.492188 L 412.46875 380.25 C 412.523438 380.171875 412.574219 380.089844 412.621094 380.011719 C 414.777344 376.480469 415.890625 372.988281 416.441406 370.679688 C 416.597656 370.695312 416.75 370.699219 416.90625 370.699219 C 418.261719 370.695312 420.753906 370.097656 422.230469 366.171875 C 422.726562 364.847656 422.949219 363.558594 423.042969 362.933594 C 426.203125 355.84375 426.910156 351.59375 425.347656 349.171875 C 424.566406 347.964844 423.273438 347.300781 421.71875 347.308594 C 421.6875 347.308594 421.65625 347.308594 421.628906 347.308594 C 421.636719 347.222656 421.648438 347.140625 421.65625 347.054688 C 422.21875 341.320312 422.789062 335.539062 422.046875 329.832031 C 421.890625 328.628906 421.671875 327.4375 421.386719 326.253906 C 419.609375 328.980469 417.050781 331.46875 413.78125 333.59375 C 413.417969 333.828125 413.054688 334.058594 412.679688 334.28125 C 413.039062 336.597656 413.070312 338.996094 413.546875 341.300781 C 413.898438 342.984375 414.480469 344.617188 415.0625 346.246094 C 415.445312 347.34375 415.828125 348.460938 416.183594 349.578125 C 416.230469 351.207031 416.21875 352.847656 416.144531 354.484375 L 417.921875 354.46875 C 417.996094 354.238281 418.074219 354.007812 418.164062 353.777344 C 418.585938 352.667969 419.492188 350.648438 420.71875 349.867188 L 420.84375 349.867188 C 420.84375 349.839844 420.84375 349.816406 420.847656 349.789062 C 421.125 349.632812 421.417969 349.539062 421.722656 349.539062 C 423.808594 349.535156 425.738281 351.515625 420.867188 362.320312 C 420.867188 362.320312 420.238281 368.457031 416.902344 368.464844 C 416.277344 368.464844 415.550781 368.25 414.722656 367.742188 C 414.722656 367.742188 412.347656 389.832031 389.792969 390.304688 C 389.761719 390.304688 389.730469 390.304688 389.703125 390.304688 C 389.523438 390.304688 389.347656 390.292969 389.160156 390.296875 C 388.984375 390.296875 388.8125 390.304688 388.632812 390.304688 C 388.601562 390.304688 388.570312 390.304688 388.539062 390.289062 C 365.984375 389.964844 363.488281 367.886719 363.488281 367.886719 C 362.660156 368.398438 361.9375 368.617188 361.3125 368.617188 C 357.976562 368.628906 357.308594 362.496094 357.308594 362.496094 C 356.082031 359.8125 354.386719 357.15625 354.042969 354.164062 C 353.898438 352.914062 353.894531 351.140625 355.085938 350.472656 C 355.085938 350.472656 355.550781 350.429688 356.148438 350.660156 C 357.269531 351.011719 358.941406 352.015625 359.464844 354.957031 C 359.464844 354.957031 360.898438 354.875 360.898438 354.859375 L 361.53125 354.816406 C 361.242188 352.792969 361.070312 350.722656 360.996094 348.636719 C 361.363281 343.730469 362.050781 338.867188 363.539062 334.164062 C 363.644531 333.835938 363.75 333.5 363.867188 333.164062 C 360.816406 331.070312 358.429688 328.65625 356.765625 326.03125 C 355.71875 332.488281 355.898438 339.371094 356.097656 345.585938 C 356.113281 345.945312 356.128906 346.3125 356.164062 346.667969 C 356.25 347.199219 356.308594 347.492188 356.308594 347.492188 C 354.78125 347.515625 353.523438 348.175781 352.761719 349.375 C 351.203125 351.804688 351.9375 356.050781 355.140625 363.121094 C 355.234375 363.75 355.46875 365.035156 355.972656 366.355469 C 357.464844 370.277344 359.964844 370.855469 361.320312 370.855469 C 361.472656 370.855469 361.628906 370.84375 361.785156 370.828125 C 362.316406 373.007812 363.359375 376.253906 365.316406 379.574219 L 365.792969 386.289062 L 365.007812 386.46875 L 361.125 395.269531 C 357.007812 397.855469 352.652344 399.328125 348.363281 401.097656 C 342.902344 403.355469 337.445312 405.605469 332.183594 408.78125 C 328.015625 411.300781 324.042969 414.355469 320.464844 418.492188 C 318.175781 421.128906 316.226562 424.058594 314.679688 427.1875 C 309.859375 436.960938 311.429688 448.722656 311.429688 459.449219 C 311.429688 463.71875 311.574219 468.472656 315.074219 471.636719 C 319.410156 475.566406 325.738281 477.90625 331.0625 480.109375 C 338.21875 483.070312 345.5 485.0625 352.84375 486.578125 C 358.828125 487.8125 364.835938 488.667969 370.855469 489.28125 C 373.796875 489.582031 376.746094 489.722656 379.695312 489.933594 C 380.476562 489.933594 381.253906 489.933594 382.039062 489.933594 C 382.507812 490.007812 382.976562 490.082031 383.445312 490.160156 C 387.386719 490.128906 391.324219 490.101562 395.261719 490.070312 C 395.734375 489.992188 396.203125 489.910156 396.667969 489.832031 C 397.453125 489.820312 398.234375 489.804688 399.015625 489.792969 C 403.519531 489.347656 408.042969 489.054688 412.535156 488.402344 C 417.359375 487.703125 422.160156 486.753906 426.957031 485.761719 C 433.351562 484.445312 439.660156 482.503906 445.875 479.953125 C 451.125 477.796875 456.914062 475.652344 461.386719 472.082031 C 467.015625 467.59375 467.140625 462.15625 467.140625 455.515625 C 467.140625 449.78125 467.140625 444.046875 467.140625 438.3125 C 467.140625 434.113281 466.125 431.117188 464.347656 427.371094 Z M 435.222656 309.949219 C 435.222656 308.289062 434.144531 306.886719 432.652344 306.398438 L 432.652344 303.386719 L 436.558594 302.070312 C 437.773438 301.664062 437.902344 300.847656 437.902344 300.515625 C 437.902344 300.1875 437.773438 299.375 436.558594 298.964844 L 390.410156 283.464844 C 389.953125 283.3125 389.476562 283.285156 389.148438 283.285156 C 388.824219 283.285156 388.34375 283.3125 387.890625 283.464844 L 341.738281 298.964844 C 340.523438 299.375 340.394531 300.1875 340.394531 300.515625 C 340.394531 300.847656 340.523438 301.664062 341.738281 302.070312 L 387.890625 317.566406 C 388.34375 317.71875 388.824219 317.75 389.148438 317.75 C 389.476562 317.75 389.953125 317.71875 390.410156 317.566406 L 427.0625 305.257812 L 429.402344 304.472656 L 430.316406 304.167969 L 430.316406 306.398438 C 428.828125 306.886719 427.746094 308.289062 427.746094 309.949219 C 427.746094 311.101562 428.269531 312.132812 429.089844 312.816406 C 427.246094 314.578125 425.875 318.117188 425.195312 321.238281 L 437.769531 321.238281 C 437.09375 318.117188 435.726562 314.578125 433.878906 312.816406 C 434.695312 312.132812 435.222656 311.101562 435.222656 309.949219 Z M 390.753906 318.59375 L 422.78125 307.835938 L 422.78125 316.824219 C 422.78125 328.957031 407.78125 338.730469 389.148438 338.730469 C 370.515625 338.730469 355.515625 328.957031 355.515625 316.824219 L 355.515625 307.835938 L 387.546875 318.59375 C 388.140625 318.789062 388.746094 318.832031 389.148438 318.832031 C 389.554688 318.832031 390.15625 318.789062 390.753906 318.59375 Z M 297.308594 340.503906 L 275.039062 333.027344 L 275.039062 339.273438 C 275.039062 347.710938 285.46875 354.496094 298.421875 354.496094 C 311.375 354.496094 321.804688 347.710938 321.804688 339.273438 L 321.804688 333.027344 L 299.535156 340.503906 C 299.121094 340.640625 298.699219 340.671875 298.421875 340.671875 C 298.140625 340.671875 297.722656 340.640625 297.308594 340.503906 Z M 316.074219 393.300781 L 314.292969 389.339844 L 314.289062 389.394531 C 314.128906 389.605469 313.945312 389.820312 313.761719 390.039062 C 313.648438 390.167969 313.53125 390.304688 313.414062 390.433594 C 313.105469 390.777344 312.777344 391.117188 312.433594 391.46875 C 312.421875 391.476562 312.410156 391.488281 312.398438 391.496094 C 312.089844 391.804688 311.765625 392.113281 311.429688 392.425781 C 311.390625 392.464844 311.347656 392.496094 311.308594 392.535156 C 310.472656 393.296875 309.578125 394.050781 308.664062 394.78125 C 308.472656 394.941406 308.28125 395.09375 308.085938 395.246094 C 308.027344 395.289062 307.972656 395.332031 307.917969 395.378906 C 307.917969 395.378906 307.914062 395.378906 307.914062 395.382812 C 307.636719 395.59375 307.359375 395.804688 307.085938 396.011719 C 306.359375 396.566406 305.644531 397.085938 304.96875 397.570312 C 303.957031 398.292969 303.039062 398.921875 302.296875 399.417969 L 306.589844 403.65625 L 302.859375 407.90625 L 295.097656 407.90625 L 291.371094 404.226562 L 295.152344 399.917969 C 294.125 399.261719 292.484375 398.1875 290.675781 396.898438 C 289.9375 396.375 289.175781 395.808594 288.410156 395.226562 C 288.382812 395.210938 288.359375 395.1875 288.332031 395.167969 C 288.007812 394.917969 287.683594 394.664062 287.363281 394.40625 C 287.285156 394.34375 287.210938 394.289062 287.136719 394.226562 C 286.8125 393.964844 286.496094 393.703125 286.179688 393.4375 C 286.152344 393.410156 286.121094 393.390625 286.089844 393.363281 C 285.757812 393.082031 285.433594 392.796875 285.121094 392.515625 C 285.039062 392.4375 284.957031 392.363281 284.878906 392.289062 C 284.644531 392.074219 284.414062 391.859375 284.191406 391.644531 C 284.105469 391.5625 284.019531 391.476562 283.933594 391.394531 C 283.734375 391.191406 283.542969 390.988281 283.351562 390.789062 C 283.261719 390.6875 283.164062 390.589844 283.074219 390.492188 C 282.84375 390.242188 282.628906 389.992188 282.429688 389.746094 L 280.589844 393.921875 L 294.003906 438.664062 L 295.179688 409.554688 L 302.335938 409.554688 L 303.941406 438.519531 Z M 309.144531 459.160156 C 307.855469 459.28125 306.566406 459.390625 305.28125 459.523438 C 304.738281 459.527344 304.195312 459.535156 303.652344 459.542969 C 303.328125 459.597656 303 459.65625 302.671875 459.714844 C 299.933594 459.730469 297.195312 459.75 294.457031 459.773438 C 294.128906 459.71875 293.804688 459.667969 293.476562 459.617188 C 292.933594 459.617188 292.390625 459.617188 291.847656 459.617188 C 289.800781 459.46875 287.75 459.367188 285.703125 459.160156 C 281.519531 458.734375 277.34375 458.144531 273.183594 457.285156 C 268.078125 456.226562 263.015625 454.84375 258.039062 452.785156 C 254.339844 451.253906 249.941406 449.625 246.925781 446.898438 C 244.492188 444.699219 244.390625 441.390625 244.390625 438.417969 C 244.390625 430.964844 243.300781 422.789062 246.652344 415.996094 C 247.726562 413.820312 249.082031 411.785156 250.671875 409.949219 C 253.160156 407.078125 255.921875 404.949219 258.820312 403.203125 C 262.476562 400.992188 266.269531 399.421875 270.066406 397.859375 C 273.046875 396.628906 276.078125 395.601562 278.9375 393.808594 L 281.636719 387.6875 L 282.183594 387.566406 L 281.851562 382.894531 C 280.492188 380.585938 279.769531 378.332031 279.398438 376.816406 C 279.289062 376.824219 279.183594 376.832031 279.074219 376.832031 C 278.132812 376.835938 276.394531 376.433594 275.355469 373.707031 C 275.007812 372.789062 274.84375 371.890625 274.777344 371.460938 C 272.550781 366.542969 272.042969 363.59375 273.125 361.902344 C 273.65625 361.074219 274.53125 360.609375 275.589844 360.585938 C 275.589844 360.585938 275.546875 360.382812 275.492188 360.019531 C 275.464844 359.769531 275.453125 359.519531 275.445312 359.269531 C 275.304688 354.945312 275.183594 350.164062 275.90625 345.671875 C 277.0625 347.5 278.726562 349.179688 280.847656 350.628906 C 280.765625 350.863281 280.691406 351.097656 280.617188 351.328125 C 279.582031 354.597656 279.105469 357.980469 278.851562 361.390625 C 278.902344 362.835938 279.019531 364.273438 279.222656 365.6875 L 278.785156 365.714844 C 278.785156 365.722656 277.785156 365.78125 277.785156 365.78125 C 277.421875 363.738281 276.257812 363.035156 275.480469 362.792969 C 275.0625 362.636719 274.742188 362.664062 274.742188 362.664062 C 273.914062 363.128906 273.914062 364.363281 274.015625 365.234375 C 274.253906 367.316406 275.433594 369.152344 276.285156 371.023438 C 276.285156 371.023438 276.75 375.285156 279.070312 375.28125 C 279.503906 375.28125 280.003906 375.128906 280.582031 374.769531 C 280.582031 374.769531 282.316406 390.117188 298 390.34375 C 298.019531 390.355469 298.039062 390.355469 298.0625 390.355469 C 298.1875 390.355469 298.304688 390.351562 298.429688 390.351562 C 298.5625 390.351562 298.679688 390.355469 298.808594 390.355469 C 298.828125 390.355469 298.847656 390.355469 298.871094 390.351562 C 314.550781 390.027344 316.199219 374.671875 316.199219 374.671875 C 316.777344 375.027344 317.277344 375.171875 317.714844 375.171875 C 320.035156 375.167969 320.472656 370.902344 320.472656 370.902344 C 323.859375 363.386719 322.515625 362.011719 321.066406 362.015625 C 320.851562 362.015625 320.648438 362.078125 320.457031 362.1875 C 320.457031 362.207031 320.457031 362.226562 320.453125 362.246094 L 320.367188 362.246094 C 319.515625 362.789062 318.886719 364.191406 318.589844 364.960938 C 318.527344 365.121094 318.476562 365.28125 318.425781 365.441406 L 317.1875 365.453125 C 317.238281 364.316406 317.246094 363.175781 317.214844 362.039062 C 316.964844 361.265625 316.703125 360.488281 316.433594 359.726562 C 316.035156 358.589844 315.625 357.460938 315.382812 356.285156 C 315.050781 354.683594 315.027344 353.015625 314.777344 351.40625 C 315.039062 351.253906 315.292969 351.097656 315.546875 350.929688 C 317.816406 349.449219 319.597656 347.726562 320.832031 345.828125 C 321.03125 346.648438 321.183594 347.480469 321.292969 348.3125 C 321.804688 352.28125 321.414062 356.308594 321.019531 360.285156 C 321.015625 360.347656 321.007812 360.40625 321 360.46875 C 321.023438 360.46875 321.042969 360.464844 321.0625 360.464844 C 322.144531 360.464844 323.039062 360.921875 323.585938 361.761719 C 324.675781 363.445312 324.179688 366.394531 321.984375 371.324219 C 321.921875 371.761719 321.761719 372.660156 321.417969 373.574219 C 320.394531 376.308594 318.660156 376.722656 317.71875 376.726562 C 317.609375 376.726562 317.503906 376.722656 317.394531 376.710938 C 317.011719 378.316406 316.238281 380.746094 314.738281 383.195312 C 314.703125 383.253906 314.667969 383.3125 314.632812 383.367188 L 314.425781 387.007812 L 315.003906 387.128906 L 317.96875 393.714844 L 317.957031 393.722656 C 320.605469 395.210938 323.347656 396.183594 326.074219 397.257812 C 330.074219 398.828125 334.074219 400.386719 337.933594 402.652344 C 338.085938 402.738281 338.238281 402.832031 338.390625 402.921875 C 335.90625 404.089844 333.433594 405.355469 331.003906 406.828125 C 326.121094 409.777344 322.105469 413.105469 318.738281 416.992188 C 316.316406 419.789062 314.261719 422.882812 312.632812 426.179688 C 308.5 434.539062 308.769531 443.984375 309.023438 453.117188 C 309.085938 455.210938 309.140625 457.191406 309.144531 459.160156 Z M 264.527344 327.9375 C 264.527344 327.707031 264.617188 327.140625 265.460938 326.859375 L 297.546875 316.085938 C 297.863281 315.976562 298.195312 315.957031 298.421875 315.957031 C 298.644531 315.957031 298.980469 315.980469 299.296875 316.085938 L 331.378906 326.859375 C 332.222656 327.140625 332.316406 327.707031 332.316406 327.9375 C 332.316406 328.167969 332.222656 328.734375 331.378906 329.015625 L 328.664062 329.929688 L 328.664062 332.027344 C 329.699219 332.363281 330.449219 333.339844 330.449219 334.492188 C 330.449219 335.292969 330.085938 336.007812 329.515625 336.488281 C 330.796875 337.707031 331.75 340.167969 332.222656 342.339844 L 323.480469 342.339844 C 323.953125 340.167969 324.902344 337.707031 326.1875 336.488281 C 325.617188 336.007812 325.253906 335.292969 325.253906 334.492188 C 325.253906 333.339844 326 332.363281 327.039062 332.027344 L 327.039062 330.472656 L 326.402344 330.6875 L 324.78125 331.230469 L 299.296875 339.789062 C 298.980469 339.894531 298.644531 339.914062 298.421875 339.914062 C 298.195312 339.914062 297.863281 339.894531 297.546875 339.789062 L 265.460938 329.015625 C 264.617188 328.734375 264.527344 328.167969 264.527344 327.9375 Z M 479.882812 340.671875 C 480.164062 340.671875 480.585938 340.640625 481 340.503906 L 503.269531 333.027344 L 503.269531 339.273438 C 503.269531 347.710938 492.839844 354.496094 479.882812 354.496094 C 466.929688 354.496094 456.5 347.710938 456.5 339.273438 L 456.5 333.027344 L 478.773438 340.503906 C 479.183594 340.640625 479.605469 340.671875 479.882812 340.671875 Z M 445.988281 327.9375 C 445.988281 327.707031 446.078125 327.140625 446.929688 326.859375 L 479.011719 316.085938 C 479.324219 315.976562 479.65625 315.957031 479.882812 315.957031 C 480.113281 315.957031 480.445312 315.980469 480.761719 316.085938 L 512.839844 326.859375 C 513.6875 327.140625 513.78125 327.707031 513.78125 327.9375 C 513.78125 328.167969 513.6875 328.734375 512.839844 329.015625 L 510.125 329.929688 L 510.125 332.027344 C 511.164062 332.363281 511.914062 333.339844 511.914062 334.492188 C 511.914062 335.292969 511.546875 336.007812 510.980469 336.488281 C 512.261719 337.707031 513.21875 340.167969 513.6875 342.339844 L 504.945312 342.339844 C 505.417969 340.167969 506.371094 337.707031 507.648438 336.488281 C 507.078125 336.007812 506.714844 335.292969 506.714844 334.492188 C 506.714844 333.339844 507.464844 332.363281 508.503906 332.027344 L 508.503906 330.472656 L 507.867188 330.6875 L 506.246094 331.230469 L 480.761719 339.789062 C 480.445312 339.894531 480.113281 339.914062 479.882812 339.914062 C 479.65625 339.914062 479.324219 339.894531 479.011719 339.789062 L 446.929688 329.015625 C 446.078125 328.734375 445.988281 328.167969 445.988281 327.9375 Z M 485.402344 438.519531 L 483.796875 409.554688 L 476.644531 409.554688 L 475.464844 438.664062 L 462.054688 393.921875 L 463.894531 389.746094 C 464.09375 389.992188 464.308594 390.242188 464.535156 390.492188 C 464.625 390.589844 464.726562 390.6875 464.8125 390.789062 C 465.007812 390.988281 465.195312 391.191406 465.398438 391.394531 C 465.480469 391.476562 465.570312 391.5625 465.652344 391.644531 C 465.878906 391.859375 466.105469 392.074219 466.339844 392.289062 C 466.425781 392.363281 466.503906 392.4375 466.582031 392.515625 C 466.898438 392.796875 467.222656 393.082031 467.558594 393.363281 C 467.582031 393.390625 467.613281 393.410156 467.644531 393.4375 C 467.957031 393.703125 468.277344 393.964844 468.601562 394.226562 C 468.679688 394.289062 468.75 394.34375 468.824219 394.40625 C 469.144531 394.664062 469.46875 394.917969 469.796875 395.167969 C 469.824219 395.1875 469.851562 395.210938 469.878906 395.226562 C 470.640625 395.808594 471.40625 396.375 472.140625 396.898438 C 473.949219 398.1875 475.585938 399.261719 476.617188 399.917969 L 472.832031 404.226562 L 476.5625 407.90625 L 484.320312 407.90625 L 488.054688 403.65625 L 483.761719 399.417969 C 484.503906 398.921875 485.421875 398.292969 486.433594 397.570312 C 487.109375 397.085938 487.824219 396.566406 488.546875 396.011719 C 488.824219 395.804688 489.101562 395.59375 489.378906 395.382812 C 489.378906 395.378906 489.382812 395.378906 489.382812 395.378906 C 489.441406 395.332031 489.492188 395.289062 489.550781 395.246094 C 489.742188 395.09375 489.9375 394.941406 490.128906 394.78125 C 491.042969 394.050781 491.9375 393.296875 492.773438 392.535156 C 492.8125 392.496094 492.851562 392.464844 492.894531 392.425781 C 493.230469 392.113281 493.554688 391.804688 493.863281 391.496094 C 493.871094 391.488281 493.882812 391.476562 493.894531 391.46875 C 494.242188 391.117188 494.570312 390.777344 494.878906 390.433594 C 495 390.304688 495.113281 390.167969 495.230469 390.039062 C 495.410156 389.820312 495.59375 389.605469 495.753906 389.394531 L 495.753906 389.339844 L 497.539062 393.300781 Z M 532.167969 416.125 C 531.277344 414.257812 530.1875 412.492188 528.925781 410.851562 C 526.105469 407.1875 522.839844 404.667969 519.394531 402.652344 C 515.539062 400.386719 511.539062 398.828125 507.539062 397.257812 C 504.8125 396.183594 502.070312 395.210938 499.421875 393.722656 L 499.429688 393.714844 L 496.46875 387.128906 L 495.890625 387.007812 L 496.097656 383.367188 C 496.128906 383.3125 496.167969 383.253906 496.203125 383.195312 C 497.707031 380.746094 498.476562 378.316406 498.855469 376.710938 C 498.964844 376.722656 499.078125 376.726562 499.179688 376.726562 C 500.125 376.722656 501.859375 376.308594 502.882812 373.574219 C 503.226562 372.660156 503.382812 371.761719 503.445312 371.324219 C 505.644531 366.394531 506.140625 363.445312 505.046875 361.761719 C 504.503906 360.921875 503.605469 360.464844 502.527344 360.464844 C 502.507812 360.464844 502.484375 360.46875 502.464844 360.46875 C 502.46875 360.40625 502.476562 360.347656 502.480469 360.285156 C 502.878906 356.308594 503.269531 352.28125 502.757812 348.3125 C 502.648438 347.480469 502.492188 346.648438 502.292969 345.828125 C 501.058594 347.726562 499.285156 349.449219 497.003906 350.929688 C 496.757812 351.097656 496.5 351.253906 496.238281 351.40625 C 496.488281 353.015625 496.515625 354.683594 496.84375 356.285156 C 497.089844 357.460938 497.496094 358.589844 497.898438 359.726562 C 498.167969 360.488281 498.429688 361.265625 498.679688 362.039062 C 498.710938 363.175781 498.699219 364.316406 498.652344 365.453125 L 499.890625 365.441406 C 499.941406 365.28125 499.992188 365.121094 500.050781 364.960938 C 500.347656 364.191406 500.980469 362.789062 501.828125 362.246094 L 501.917969 362.246094 C 501.917969 362.226562 501.917969 362.207031 501.925781 362.1875 C 502.117188 362.078125 502.320312 362.015625 502.527344 362.015625 C 503.976562 362.011719 505.324219 363.386719 501.9375 370.902344 C 501.9375 370.902344 501.5 375.167969 499.175781 375.171875 C 498.742188 375.171875 498.242188 375.027344 497.664062 374.671875 C 497.664062 374.671875 496.015625 390.027344 480.332031 390.351562 C 480.308594 390.355469 480.289062 390.355469 480.269531 390.355469 C 480.144531 390.355469 480.023438 390.351562 479.894531 390.351562 C 479.769531 390.351562 479.648438 390.355469 479.523438 390.355469 C 479.503906 390.355469 479.480469 390.355469 479.460938 390.34375 C 463.78125 390.117188 462.046875 374.769531 462.046875 374.769531 C 461.472656 375.128906 460.96875 375.28125 460.53125 375.28125 C 458.210938 375.285156 457.75 371.027344 457.75 371.027344 C 456.898438 369.152344 455.71875 367.316406 455.480469 365.234375 C 455.375 364.363281 455.375 363.128906 456.203125 362.664062 C 456.203125 362.664062 456.527344 362.636719 456.945312 362.792969 C 457.722656 363.035156 458.886719 363.738281 459.25 365.78125 C 459.25 365.78125 460.246094 365.722656 460.246094 365.714844 L 460.683594 365.6875 C 460.484375 364.273438 460.367188 362.835938 460.316406 361.390625 C 460.570312 357.980469 461.050781 354.597656 462.082031 351.328125 C 462.152344 351.097656 462.226562 350.863281 462.3125 350.628906 C 460.1875 349.179688 458.53125 347.5 457.375 345.671875 C 456.644531 350.164062 456.769531 354.945312 456.910156 359.269531 C 456.917969 359.519531 456.929688 359.769531 456.957031 360.019531 C 457.011719 360.382812 457.054688 360.585938 457.054688 360.585938 C 455.992188 360.609375 455.121094 361.074219 454.589844 361.902344 C 453.503906 363.59375 454.015625 366.542969 456.242188 371.460938 C 456.308594 371.890625 456.472656 372.789062 456.820312 373.707031 C 457.859375 376.433594 459.59375 376.835938 460.539062 376.832031 C 460.648438 376.832031 460.753906 376.824219 460.863281 376.816406 C 461.230469 378.332031 461.957031 380.585938 463.316406 382.894531 L 463.648438 387.566406 L 463.097656 387.6875 L 460.402344 393.808594 C 457.539062 395.601562 454.511719 396.628906 451.527344 397.859375 C 447.972656 399.328125 444.421875 400.804688 440.976562 402.796875 C 443.050781 403.769531 445.109375 404.832031 447.144531 406.019531 C 453.15625 409.542969 457.71875 413.472656 461.507812 418.390625 C 463.4375 420.90625 465.089844 423.601562 466.414062 426.394531 C 468.269531 430.316406 469.421875 433.679688 469.421875 438.3125 L 469.421875 455.515625 C 469.421875 456.789062 469.421875 458.070312 469.371094 459.347656 C 470.6875 459.441406 472 459.523438 473.3125 459.617188 C 473.855469 459.617188 474.398438 459.617188 474.941406 459.617188 C 475.269531 459.667969 475.597656 459.71875 475.921875 459.773438 C 478.65625 459.75 481.398438 459.730469 484.136719 459.714844 C 484.460938 459.65625 484.789062 459.597656 485.113281 459.542969 C 485.660156 459.535156 486.203125 459.527344 486.742188 459.523438 C 489.878906 459.207031 493.023438 459.003906 496.144531 458.550781 C 499.5 458.066406 502.835938 457.402344 506.171875 456.714844 C 510.613281 455.796875 515 454.453125 519.320312 452.675781 C 522.972656 451.179688 526.992188 449.691406 530.105469 447.207031 C 534.015625 444.085938 534.097656 440.308594 534.097656 435.6875 C 534.097656 431.703125 534.097656 427.714844 534.097656 423.726562 C 534.097656 420.808594 533.394531 418.726562 532.167969 416.125 " fill-opacity="1" fill-rule="nonzero"/></svg>