<svg xmlns="http://www.w3.org/2000/svg" xmlns:xlink="http://www.w3.org/1999/xlink" width="1080" zoomAndPan="magnify" viewBox="0 0 810 809.999993" height="1080" preserveAspectRatio="xMidYMid meet" version="1.0"><defs><clipPath id="fe39896256"><path d="M 155.042969 165 L 655 165 L 655 664.941406 L 155.042969 664.941406 Z M 155.042969 165 " clip-rule="nonzero"/></clipPath></defs><g clip-path="url(#fe39896256)"><path fill="#6b6b6b" d="M 283.277344 466.441406 C 280.140625 466.441406 277.691406 468.992188 277.691406 472.027344 L 277.691406 554.546875 C 277.691406 557.683594 280.238281 560.132812 283.277344 560.132812 L 321.203125 560.132812 C 324.339844 560.132812 326.789062 557.585938 326.789062 554.546875 L 326.789062 472.027344 C 326.789062 468.890625 324.242188 466.441406 321.203125 466.441406 Z M 315.617188 549.058594 L 288.863281 549.058594 L 288.863281 477.710938 L 315.617188 477.710938 Z M 649.316406 576.007812 L 243.195312 576.007812 L 243.195312 170.671875 C 243.195312 167.535156 240.644531 165.085938 237.609375 165.085938 L 198.40625 165.085938 C 195.269531 165.085938 192.820312 167.632812 192.820312 170.671875 L 192.820312 576.007812 L 160.675781 576.007812 C 157.539062 576.007812 155.089844 578.558594 155.089844 581.59375 L 155.089844 620.699219 C 155.089844 623.835938 157.636719 626.285156 160.675781 626.285156 L 192.820312 626.285156 L 192.820312 659.214844 C 192.820312 662.347656 195.367188 664.800781 198.40625 664.800781 L 237.511719 664.800781 C 240.644531 664.800781 243.097656 662.25 243.097656 659.214844 L 243.097656 626.285156 L 649.21875 626.285156 C 652.355469 626.285156 654.804688 623.738281 654.804688 620.699219 L 654.804688 581.59375 C 654.902344 578.460938 652.355469 576.007812 649.316406 576.007812 Z M 192.820312 615.113281 L 166.261719 615.113281 L 166.261719 587.179688 L 192.820312 587.179688 Z M 232.023438 653.726562 L 203.992188 653.726562 L 203.992188 176.257812 L 231.921875 176.257812 L 231.921875 653.726562 Z M 643.730469 615.113281 L 243.195312 615.113281 L 243.195312 587.179688 L 643.730469 587.179688 Z M 350.703125 422.242188 C 347.566406 422.242188 345.117188 424.792969 345.117188 427.828125 L 345.117188 554.546875 C 345.117188 557.683594 347.664062 560.132812 350.703125 560.132812 L 388.628906 560.132812 C 391.765625 560.132812 394.214844 557.585938 394.214844 554.546875 L 394.214844 427.828125 C 394.214844 424.691406 391.667969 422.242188 388.628906 422.242188 Z M 383.042969 549.058594 L 356.289062 549.058594 L 356.289062 433.414062 L 383.042969 433.414062 Z M 418.03125 333.257812 C 414.894531 333.257812 412.445312 335.804688 412.445312 338.84375 L 412.445312 554.644531 C 412.445312 557.78125 414.992188 560.230469 418.03125 560.230469 L 455.957031 560.230469 C 459.09375 560.230469 461.542969 557.683594 461.542969 554.644531 L 461.542969 338.84375 C 461.542969 335.707031 458.996094 333.257812 455.957031 333.257812 Z M 450.371094 549.058594 L 423.617188 549.058594 L 423.617188 344.429688 L 450.371094 344.429688 Z M 488.691406 560.230469 L 526.617188 560.230469 C 529.753906 560.230469 532.203125 557.683594 532.203125 554.644531 C 532.203125 554.644531 532.203125 523.1875 532.203125 523.1875 C 532.203125 523.1875 532.203125 425.476562 532.203125 425.476562 C 532.203125 425.476562 532.203125 394.117188 532.203125 394.117188 C 532.203125 390.980469 529.65625 388.53125 526.617188 388.53125 L 488.691406 388.53125 C 485.554688 388.53125 483.105469 391.078125 483.105469 394.117188 C 483.105469 394.214844 483.105469 425.476562 483.105469 425.574219 C 483.105469 425.574219 483.105469 523.382812 483.105469 523.480469 C 483.105469 523.480469 483.105469 554.742188 483.105469 554.742188 C 483.105469 557.683594 485.554688 560.230469 488.691406 560.230469 Z M 494.179688 425.574219 C 494.277344 425.476562 494.179688 399.703125 494.179688 399.605469 L 520.933594 399.605469 C 520.933594 433.808594 520.933594 514.855469 520.933594 549.058594 L 494.179688 549.058594 C 494.277344 532.105469 494.179688 444.292969 494.179688 425.574219 Z M 556.019531 275.632812 C 552.882812 275.632812 550.433594 278.179688 550.433594 281.21875 C 550.433594 325.808594 550.433594 510.054688 550.433594 554.546875 C 550.433594 557.683594 552.980469 560.132812 556.019531 560.132812 L 593.945312 560.132812 C 597.082031 560.132812 599.53125 557.585938 599.53125 554.546875 C 599.53125 542.394531 599.53125 331.886719 599.53125 312.773438 C 599.628906 312.675781 599.53125 281.316406 599.53125 281.21875 C 599.53125 278.082031 596.984375 275.632812 593.945312 275.632812 C 593.945312 275.632812 556.019531 275.632812 556.019531 275.632812 Z M 588.359375 312.578125 C 588.261719 329.140625 588.359375 538.179688 588.359375 549.058594 L 561.605469 549.058594 C 561.605469 512.699219 561.605469 323.261719 561.605469 286.902344 L 588.359375 286.902344 Z M 377.457031 328.554688 C 362.757812 321.988281 345.605469 336.195312 349.429688 351.878906 L 317.1875 368.734375 C 305.035156 355.210938 281.121094 364.519531 281.511719 382.945312 C 282.886719 413.128906 327.28125 408.425781 322.378906 378.632812 L 354.523438 361.777344 C 372.261719 380.199219 401.074219 356.386719 386.179688 335.511719 L 429.105469 280.628906 C 435.671875 283.570312 444.296875 282.199219 449.683594 277.691406 L 488.691406 306.109375 C 482.515625 319.242188 493.003906 335.414062 507.605469 335.117188 C 525.148438 335.511719 534.949219 313.265625 522.894531 300.71875 L 568.269531 235.351562 C 599.042969 244.171875 606.882812 197.132812 574.933594 195.269531 C 557.878906 194.679688 547.785156 216.4375 559.054688 228.980469 L 513.386719 294.742188 C 507.605469 292.78125 500.648438 294.054688 495.746094 297.484375 L 456.152344 268.671875 C 461.445312 255.640625 450.859375 240.546875 436.847656 240.839844 C 420.382812 240.351562 410.09375 260.832031 420.1875 273.671875 Z M 302.289062 392.449219 C 289.84375 392.253906 289.84375 373.730469 302.289062 373.535156 C 314.734375 373.730469 314.734375 392.253906 302.289062 392.449219 Z M 369.617188 357.167969 C 357.171875 356.972656 357.171875 338.449219 369.617188 338.253906 C 382.0625 338.449219 382.0625 356.972656 369.617188 357.167969 Z M 575.03125 206.539062 C 587.476562 206.734375 587.476562 225.257812 575.03125 225.453125 C 562.585938 225.257812 562.585938 206.734375 575.03125 206.539062 Z M 507.605469 305.03125 C 520.050781 305.226562 520.050781 323.75 507.605469 323.945312 C 495.160156 323.847656 495.160156 305.324219 507.605469 305.03125 Z M 437.042969 252.109375 C 449.488281 252.308594 449.488281 270.828125 437.042969 271.023438 C 424.597656 270.730469 424.5 252.503906 437.042969 252.109375 Z M 330.121094 267.792969 C 330.023438 275.140625 319.046875 275.140625 318.949219 267.792969 C 318.949219 260.441406 330.121094 260.441406 330.121094 267.792969 Z M 298.664062 210.851562 C 298.269531 194.976562 314.050781 182.039062 329.632812 185.46875 C 351.191406 189.191406 357.757812 218.984375 340.019531 231.53125 C 333.75 236.234375 330.121094 242.996094 330.121094 250.152344 C 330.613281 253.679688 328.359375 257.304688 324.535156 257.304688 C 320.714844 257.304688 318.460938 253.777344 318.949219 250.152344 C 318.949219 239.46875 324.144531 229.375 333.355469 222.613281 C 343.351562 215.652344 339.726562 198.503906 327.574219 196.542969 C 318.65625 194.582031 309.738281 201.835938 309.933594 210.949219 C 309.835938 218.203125 298.761719 218.203125 298.664062 210.851562 Z M 324.535156 288.566406 C 358.542969 288.566406 386.179688 260.929688 386.179688 226.925781 C 382.75 145.191406 266.324219 145.191406 262.890625 226.925781 C 262.890625 260.929688 290.527344 288.566406 324.535156 288.566406 Z M 324.535156 176.550781 C 352.367188 176.550781 375.007812 199.1875 375.007812 227.023438 C 372.363281 293.859375 276.710938 293.859375 274.164062 227.023438 C 274.066406 199.1875 296.703125 176.550781 324.535156 176.550781 Z M 324.535156 176.550781 " fill-opacity="1" fill-rule="nonzero"/></g></svg>